<?xml version="1.0"?>
<!DOCTYPE svg PUBLIC "-//W3C//DTD SVG 1.1//EN" "http://www.w3.org/Graphics/SVG/1.1/DTD/svg11.dtd">
<svg version='1.1' width='170px' height='170px' xmlns='http://www.w3.org/2000/svg' xmlns:xlink='http://www.w3.org/1999/xlink'>
	<defs>
		<radialGradient id="grad0" gradientUnits="userSpaceOnUse" cx="0.0" cy="0.0" r=".5" gradientTransform="matrix(246.7 0 0 -248.75 83.85 74.05)">
		<stop offset="0.392157%" stop-color="#A0A0A0"/>
		<stop offset="100%" stop-color="#000000"/>
		</radialGradient>
	</defs>
	<g transform="translate(84.9,84.9)">
		<path d="M 86.7 166.2 Q 102.25 165.85 116.45 159.85 Q 130.25 154.05 141.1 143.65 L 86.7 89.2 Z M 143.65 141.1 Q 154.05 130.25 159.85 116.45 Q 165.85 102.25 166.2 86.7 L 89.2 86.7 Z M 28.7 143.65 Q 39.55 154.05 53.35 159.85 Q 67.55 165.85 83.1 166.2 L 83.1 89.2 Z M 80.6 86.7 L 3.6 86.7 Q 3.95 102.2 9.95 116.45 Q 15.8 130.25 26.2 141.1 Z M 9.95 53.35 Q 3.95 67.6 3.6 83.1 L 80.6 83.1 L 26.2 28.7 Q 15.8 39.55 9.95 53.35 Z M 83.1 80.6 L 83.1 3.6 Q 67.55 3.95 53.35 9.95 Q 39.55 15.8 28.7 26.2 Z M 159.85 53.35 Q 154.05 39.55 143.65 28.7 L 89.2 83.1 L 166.2 83.1 Q 165.85 67.55 159.85 53.35 Z M 116.45 9.95 Q 102.25 3.95 86.7 3.6 L 86.7 80.6 L 141.1 26.2 Q 130.25 15.8 116.45 9.95 Z M 163.1 51.9 Q 169.8 67.65 169.8 84.9 Q 169.8 102.15 163.1 117.9 Q 156.65 133.15 144.9 144.9 Q 133.15 156.65 117.9 163.1 Q 102.15 169.8 84.9 169.8 Q 67.65 169.8 51.9 163.1 Q 36.65 156.65 24.9 144.9 Q 13.15 133.15 6.7 117.9 Q 0 102.15 0 84.9 Q 0 67.65 6.7 51.9 Q 13.15 36.65 24.9 24.9 Q 36.65 13.15 51.9 6.7 Q 67.65 0 84.9 0 Q 102.15 0 117.9 6.7 Q 133.15 13.15 144.9 24.9 Q 156.65 36.65 163.1 51.9 Z" transform="translate(-84.9,-84.9)" fill="url(#grad0)"/>
	</g>
</svg>
