<?xml version="1.0"?>
<!DOCTYPE svg PUBLIC "-//W3C//DTD SVG 1.1//EN" "http://www.w3.org/Graphics/SVG/1.1/DTD/svg11.dtd">
<svg version='1.1' width='229px' height='312px' xmlns='http://www.w3.org/2000/svg' xmlns:xlink='http://www.w3.org/1999/xlink'>
	<defs>
		<linearGradient id="grad0" gradientUnits="userSpaceOnUse" x1="6.075" y1="261.15" x2="24.325" y2="261.15">
		<stop offset="0%" stop-color="#FFFFFF"/>
		<stop offset="100%" stop-color="#000000"/>
		</linearGradient>
		<linearGradient id="grad1" gradientUnits="userSpaceOnUse" x1="104.625" y1="290.65" x2="116.575" y2="290.65">
		<stop offset="0%" stop-color="#FFFFFF"/>
		<stop offset="100%" stop-color="#000000"/>
		</linearGradient>
		<linearGradient id="grad2" gradientUnits="userSpaceOnUse" x1="15.6" y1="277.35" x2="110.7" y2="277.35">
		<stop offset="0%" stop-color="#FFFFFF"/>
		<stop offset="100%" stop-color="#000000"/>
		</linearGradient>
		<linearGradient id="grad3" gradientUnits="userSpaceOnUse" x1="117.55" y1="291.4" x2="133.95" y2="291.4">
		<stop offset="0%" stop-color="#FFFFFF"/>
		<stop offset="100%" stop-color="#000000"/>
		</linearGradient>
		<linearGradient id="grad4" gradientUnits="userSpaceOnUse" x1="2.9" y1="253.2" x2="13.4" y2="253.2">
		<stop offset="0%" stop-color="#FFFFFF"/>
		<stop offset="100%" stop-color="#000000"/>
		</linearGradient>
		<linearGradient id="grad5" gradientUnits="userSpaceOnUse" x1="135.363" y1="92.75" x2="163.638" y2="92.75">
		<stop offset="0%" stop-color="#FFFFFF"/>
		<stop offset="100%" stop-color="#000000"/>
		</linearGradient>
		<linearGradient id="grad6" gradientUnits="userSpaceOnUse" x1="160.588" y1="24.325" x2="206.713" y2="18.275">
		<stop offset="0%" stop-color="#8C2C07"/>
		<stop offset="99.2157%" stop-color="#412F01"/>
		</linearGradient>
		<linearGradient id="grad7" gradientUnits="userSpaceOnUse" x1="197.15" y1="24.15" x2="166.05" y2="18.95">
		<stop offset="0%" stop-color="#FEFF03"/>
		<stop offset="100%" stop-color="#F89B11"/>
		</linearGradient>
	</defs>
		<path d="M 167 26.95 Q 170.8 24.8 175.5 24.8 Q 179.25 24.8 183.2 26.15 Q 185.8 27.05 186.55 27.6 Q 186.95 27.85 187 27.95 Q 188.65 29.6 187.9 31.3 Q 187.15 33.15 184.35 33.15 Q 183.8 33.15 183.4 32.95 Q 179.35 31 175.8 31 Q 171.5 31 168.05 33.85 Q 165.95 35.55 164.55 37.95 Q 165.2 38.55 165.55 39.15 Q 165.95 39.95 165.8 40.7 L 142.55 146.35 Q 159.05 151.4 177.4 165.35 Q 186.75 172.4 193.5 179.2 L 193.9 179.75 L 194.3 179.8 Q 212.25 183.3 221.8 207.3 Q 226.65 219.4 228 232 Q 228.05 232.45 227.9 232.95 Q 228.2 233.45 228.25 233.75 Q 229.9 243 225 249.55 Q 220.7 255.4 211.85 258.6 Q 203.7 260.7 203.4 260.75 L 203 260.75 Q 202.05 262.2 200.9 263.15 Q 194.8 268.3 184.15 273.45 Q 184.25 279.4 183.45 284.4 Q 182.1 292.8 178.65 295.45 Q 172.45 300.15 156.35 304.8 Q 132.85 311.6 104.45 311.6 Q 83.9 311.6 61.8 307.8 Q 17.65 300.1 4.65 279.5 Q 0.45 272.85 0.05 265.65 Q 0.5 259.6 0.55 259.4 Q 0.7 258.65 1.35 258.25 Q 0.55 255.45 0.7 252.35 Q 0.85 247.95 3.1 245.1 Q 4.4 243.35 6.2 242.5 L 6.2 242.35 L 7.2 239.95 Q 7.5 239.15 8.35 238.75 Q 8.05 238.05 8.05 237.65 Q 7.95 237 8.15 236.55 Q 10.1 231.65 12.75 226.3 Q 17.95 215.65 22.55 210.9 L 22.9 210.6 Q 22.8 209.65 23.55 208.9 Q 26.4 206.25 29.75 203.55 Q 36.35 198.25 40.25 196.95 Q 40.85 196.8 41.3 196.9 Q 48.35 184.25 57.7 179.05 L 58.55 178.6 Q 58.4 177.75 58.75 177.05 Q 60 174.75 62.45 171.6 Q 67.3 165.4 73.95 160.25 Q 82.85 153.25 94.05 149.1 Q 108.75 143.65 126.05 143.65 Q 129.55 143.65 133.3 144.2 L 156.35 38.8 Q 156.65 37.55 157.85 37.15 L 158.8 36.95 Q 158.8 36.55 158.95 36.25 Q 161.95 29.8 167 26.95 Z" transform="translate(-0.05,-0.5)" fill="#000000"/>
		<path d="M 52.75 190.6 Q 55.15 187.6 60.45 184.4 Q 65.35 181.5 78.4 180.2 Q 84.9 179.55 90.45 179.5 Q 93.95 178.9 92.3 181.1 Q 91.5 182.2 89.95 183.4 Q 83.65 190.15 74 211.3 Q 66.55 227.55 64.1 235.35 Q 62.65 239.95 60.35 245.05 Q 57.75 250.75 56.55 251.25 Q 53.5 252.5 49.45 250.7 Q 43.2 247.9 40.7 238.05 Q 38.2 228.15 41.95 214.7 Q 44.15 206.8 48.5 198.05 Q 51.3 192.35 52.75 190.6 Z" transform="translate(-0.05,-0.5)" fill="#70B62C"/>
		<path d="M 102.4 187.55 Q 104.7 184.7 108.4 184.5 Q 110.3 184.4 111.7 184.9 Q 119.75 186.45 127.4 190.3 Q 133.8 193.55 140.7 198.8 Q 146.25 203.05 147.4 207.85 Q 148.25 211.5 146.55 214.15 Q 145.6 215.65 136.45 220.8 Q 124.85 227.3 121.95 229.3 Q 118.55 231.55 107.2 245.1 Q 96.5 257.9 92.15 260 Q 86.65 262.65 80.9 262.75 Q 76.3 262.8 72.15 261.25 Q 68.2 259.8 67.35 257.15 Q 66.15 253.4 68 242.45 Q 69.7 232.45 84.85 210.8 Q 90.5 202.7 102.4 187.55 Z" transform="translate(-0.05,-0.5)" fill="#70B62C"/>
		<path d="M 74.15 179.9 Q 65.25 181.3 61.7 182.7 Q 56.2 184.85 50.6 191.85 Q 41.85 202.7 39.5 219.5 Q 37 237.05 42.2 245.7 Q 46.15 252.2 53.4 252.7 Q 58.15 253 60.85 246.9 Q 64 237.35 66.8 230.5 Q 75.95 208.25 82.7 196.65 Q 87.75 187.95 95.1 179.75 Q 100.45 173.8 105.4 175.85 Q 107.85 176.85 109.25 179.05 L 102.65 185.35 Q 95.8 192.05 84.05 210.15 Q 73.6 226.25 69.5 234.9 Q 64.4 245.6 64.65 251.85 Q 65 261.75 77.55 263.65 Q 89.6 265.5 101.95 253.7 Q 106.05 249.75 114.6 238.05 Q 116.85 235.05 123.9 229.75 Q 129.35 225.65 133.4 223.2 Q 138.45 221.35 141.55 220 Q 147.25 217.45 148.75 212.95 Q 150.5 207.7 145.7 202.25 Q 141.5 197.5 130.95 191.25 Q 122.75 186.35 114.2 184.3 L 107.3 183.2 L 109.75 180.5 Q 139.05 190.4 151.45 203.05 Q 158.2 210 158.75 216.1 Q 158.9 218.15 155.25 220.45 Q 151.95 222.5 149 222.95 Q 146.3 223.35 131.5 232.6 Q 116.4 242.05 112.9 245.85 Q 110.45 248.55 101.3 258.9 Q 92.45 268.6 88 271.95 Q 83.5 275.4 77.05 276.05 Q 68.5 276.85 54.85 273.2 Q 46 270.8 42.15 265.1 Q 41.1 263.55 39.15 257.6 Q 35.5 246.65 35 234.8 Q 34.65 225.95 36.05 217.8 Q 37.65 208.25 42.9 198.5 Q 49.55 186.1 58.75 181 Q 67.3 176.25 82.65 176.2 Q 90.35 176.2 96.3 177.1 L 93.4 178.55 Q 84.9 178.2 74.15 179.9 Z" transform="translate(-0.05,-0.5)" fill="#70B62C"/>
		<path d="M 28.4 212.8 Q 33 214 34.35 218.3 L 33.75 222.25 Q 33.15 227.05 33.15 231 L 32.1 233.1 Q 30.75 235.65 29.05 237.7 Q 23.7 244.15 17.3 243.2 Q 13.35 242.6 11.35 239.9 L 10.2 237.35 Q 11.9 232.95 14.5 227.65 Q 19.7 217 24.1 212.45 Z" transform="translate(-0.05,-0.5)" fill="#FDF006"/>
		<path d="M 9.25 240.75 L 12.7 243.1 Q 17 245.45 20.95 245.15 Q 24.9 244.85 29.45 239.85 L 33.15 234.9 Q 33.15 244.65 37.05 256.25 Q 39 262 40.95 265.85 L 25.35 257.1 Q 25.8 255.7 25.7 253.95 Q 25.6 250.5 23.15 248.8 Q 20.7 247.1 17.4 248.4 L 14.6 250 L 8.25 243.2 Z" transform="translate(-0.05,-0.5)" fill="#70B62C"/>
		<path d="M 25.1 210.5 Q 27.6 208.15 30.85 205.5 Q 37.3 200.25 40.95 199.05 L 38.1 205.15 Q 35.15 211.95 34.85 215.15 Q 34.75 214.3 33.45 213.3 Q 30.9 211.25 25.1 210.5 Z" transform="translate(-0.05,-0.5)" fill="#70B62C"/>
		<path d="M 152.65 224.15 Q 160.85 223 168.6 230.4 Q 177 238.45 180.45 252.95 L 181.45 259.05 Q 182.4 265.95 181.95 269.75 L 180.35 272.6 Q 177.9 276 173.8 279.05 Q 160.7 288.7 135.85 290.5 Q 136.6 289 134.7 287.4 Q 130.9 284.2 117.8 283.9 Q 117.2 282.35 116.05 280.75 Q 113.7 277.6 110.95 277.6 Q 108.2 277.6 105.55 279.9 Q 104.2 281.05 103.4 282.2 Q 81.7 279.3 78.75 278.55 Q 82.1 276.9 86.1 274.5 Q 94.1 269.75 97.3 266.1 Q 103.45 258.35 107.4 253.65 Q 114.7 244.9 119.5 241.7 Q 133.65 232.45 135.15 231.55 Q 146.1 225.1 152.65 224.15 Z" transform="translate(-0.05,-0.5)" fill="#70B62C"/>
		<path d="M 23.6 252.35 Q 24.25 253.95 24.35 255.6 Q 22.35 253.85 19.95 255.35 Q 17.65 256.8 15.6 260.75 Q 13.9 263.95 14.45 268.15 Q 14.75 270.25 15.35 271.7 Q 15.1 272.4 14.2 272.75 Q 12.45 273.5 9.25 271.95 Q 2.7 268.85 9.25 258.95 Q 11.65 255.25 14.95 252.25 Q 18.15 249.4 19.7 249.3 Q 22.3 249.15 23.6 252.35 Z" transform="translate(-0.05,-0.5)" fill="url(#grad0)"/>
		<path d="M 105.35 282.45 Q 105.85 281.3 106.95 280.35 Q 109.1 278.45 112.15 279.55 Q 115.25 280.65 116.2 286 Q 116.55 288.1 116.55 292.45 Q 116.55 296.05 114.05 299.55 Q 110.5 304.5 104.6 300 Q 105.9 299.95 107.4 298.95 Q 110.5 296.95 111.7 292.2 Q 113.05 287.05 111.5 284.45 Q 110.25 282.25 108 282.7 Q 106.5 283 105.8 282.75 Z" transform="translate(-0.05,-0.5)" fill="url(#grad1)"/>
		<path d="M 105.35 283.9 L 108.05 283.8 Q 110.7 284.4 110.7 287.6 Q 110.7 292.3 108.4 295.45 Q 107.2 297 106.05 297.6 Q 72.7 295.15 41.3 282.7 Q 31.45 278.8 23.05 274.4 L 16.55 270.75 Q 15.95 270.35 15.7 269.05 Q 15.2 266.5 17.05 262.2 Q 18.85 257.95 21.45 257.25 Q 22.75 256.85 23.65 257.35 Q 36.15 268.15 55.8 274.95 Q 65.6 278.35 72.9 279.55 Z" transform="translate(-0.05,-0.5)" fill="url(#grad2)"/>
		<path d="M 118.7 288.8 L 118 285.15 Q 118.4 285.3 126.7 285.45 Q 134.65 286.5 133.9 291.25 Q 133.1 295.95 125.25 297.25 L 117.55 297.6 Q 119.1 293.3 118.7 288.8 Z" transform="translate(-0.05,-0.5)" fill="url(#grad3)"/>
		<path d="M 5.2 245.95 L 7.3 244.4 L 13.4 251 Q 11.25 252.8 8.3 257.55 Q 6.85 259.95 5.8 261.95 Q 5 261.25 4.25 259.7 Q 2.75 256.6 2.9 252.45 Q 3.05 248.35 5.2 245.95 Z" transform="translate(-0.05,-0.5)" fill="url(#grad4)"/>
		<path d="M 191.45 196.95 Q 192.45 217.9 200.25 241.7 L 199.8 243.15 Q 199.1 245 197.7 247 Q 193.25 253.4 183.65 259.05 Q 182.7 251.05 178.6 242.4 Q 170.5 225.1 155.1 221.7 Q 156 221.45 157.15 220.7 Q 159.4 219.2 160.45 216.6 L 188.75 192.45 Q 181.55 182.35 170.1 172.2 Q 147.1 151.95 125.6 151.95 Q 102.1 151.95 86.75 159.3 Q 75.45 164.7 64.35 176.85 L 60.7 178.05 Q 64.95 170 75.25 161.95 Q 95.85 145.85 126.05 145.85 Q 145.75 145.85 170.8 163.3 Q 183.35 172.05 191.95 180.75 L 191.5 184.9 Q 191.1 190.4 191.45 196.95 Z" transform="translate(-0.05,-0.5)" fill="#70B62C"/>
		<path d="M 193.65 186.6 L 193.9 181.95 Q 210.95 185.3 220.1 209.1 Q 224.7 221 225.85 232.2 Q 218.55 240.6 209.85 242.25 Q 207.15 242.75 204.65 242.5 L 202.65 242.2 Q 195.5 221 194 199.35 Q 193.5 192.55 193.65 186.6 Z" transform="translate(-0.05,-0.5)" fill="#70B62C"/>
		<path d="M 202.65 244.4 Q 211.8 245.45 219.85 239.9 Q 223.9 237.15 226.1 234.15 Q 228.55 247.45 216.1 254.3 Q 209.85 257.75 203.15 258.55 Q 204.35 255.35 203.65 249.55 Z" transform="translate(-0.05,-0.5)" fill="#1D1D1B"/>
		<path d="M 191.65 255.25 Q 199.9 248.55 200.95 243.65 L 202.5 250.65 Q 203.3 258.3 199.5 261.5 Q 195.7 264.7 189.05 268.4 Q 185.7 270.3 183.15 271.5 Q 183.65 264.65 183.65 261 Q 187.55 258.65 191.65 255.25 Z" transform="translate(-0.05,-0.5)" fill="#1D1D1B"/>
		<path d="M 154.25 289.55 Q 174 284.55 181.95 272.95 L 181.55 281.85 Q 180.5 291.25 177.3 293.7 Q 174.45 295.9 166.85 298.9 Q 156.5 303 143.7 305.6 Q 106.25 313.3 62.15 305.65 Q 19.05 298.2 6.55 278.35 Q 2.6 272.15 2.25 265.45 L 2.65 260 L 4.6 263.45 L 4.4 267.2 Q 5.05 271.35 9 273.2 Q 12.95 275 15.3 273.9 Q 16.45 273.35 16.8 272.45 L 21.75 275.7 Q 28.5 279.7 37.2 283.35 Q 65.05 295 102.4 298.8 L 104.05 301.3 Q 106.4 303.8 109.75 303.95 Q 113.1 304.1 115.4 301.45 L 117.05 298.8 L 119.65 299 Q 122.8 299.15 125.55 298.8 Q 134.4 297.7 136.05 292.2 L 141.45 291.8 Q 148.05 291.1 154.25 289.55 Z" transform="translate(-0.05,-0.5)" fill="#1D1D1B"/>
		<path d="M 176.2 27 Q 181.3 27.2 185.45 29.5 Q 186.4 30.4 185.45 30.75 L 184.35 30.95 Q 174.7 26.35 167.55 31.5 Q 165.3 33.1 163.55 35.5 L 162.3 37.55 L 160.95 37.2 Q 165.9 26.6 176.2 27 Z" transform="translate(-0.05,-0.5)" fill="#1D1D1B"/>
		<path d="M 170 174.85 Q 179.35 183.65 184.85 191.95 L 160.2 213.4 Q 158.85 204.85 142.8 193.9 Q 137.8 190.45 131.95 187.2 L 127.05 184.65 Q 127.35 179.8 126.05 174.45 Q 123.4 163.75 115.35 161.45 Q 103.75 158.15 95.7 165.95 Q 91.65 169.85 89.95 174.4 L 66.55 176.35 Q 82.1 158.4 107.5 154.65 Q 118.9 153 131.95 154.65 Q 151.3 157.25 170 174.85 Z" transform="translate(-0.05,-0.5)" fill="#325914"/>
		<path d="M 95.35 174.65 Q 96.5 171.65 99 169.1 Q 104 164 110.7 166.1 Q 117.4 168.25 120 175.7 Q 121.25 179.4 121.2 182.7 L 111.45 179.5 Q 110.85 177.8 108.9 176.4 Q 104.95 173.55 98.25 174.9 Z" transform="translate(-0.05,-0.5)" fill="#325914"/>
		<path d="M 90.95 174.4 Q 94.4 167.95 98.1 165 Q 104.4 159.95 113.4 161.7 Q 122 163.4 124.9 174.05 Q 126.35 179.4 126.05 184.4 L 121.95 183.4 Q 121.8 176.9 119.8 172.8 Q 116.9 166.85 109.95 165 Q 103.5 163.25 98.25 168.8 Q 95.65 171.55 94.35 174.65 Z" transform="translate(-0.05,-0.5)" fill="#1D1D1B"/>
		<path d="M 160.6 38.95 Q 162.85 38.9 163.65 40.25 L 140.2 146.6 Q 138.5 145.35 135.35 145.1 L 158.5 39.25 Z" transform="translate(-0.05,-0.5)" fill="url(#grad5)"/>
	<g transform="translate(-0.05,-0.5)">
			<path d="M 60.45 252.7 L 59.85 261.7 Q 58.65 270.45 55.6 269.05 Q 49.55 266.35 54.4 259.25 Q 55.95 257 58.35 254.65 Z" fill="#FFFFFF"/>
			<path d="M 60.45 252.7 L 58.35 254.65 Q 55.95 257 54.4 259.25 Q 49.55 266.35 55.6 269.05 Q 58.65 270.45 59.85 261.7 Z" fill="none" stroke-width="1" stroke-miterlimit="10" stroke="#000000"/>
	</g>
		<path d="M 116.45 248.05 Q 121.55 243.2 128.75 243.2 Q 135.95 243.2 141.05 248.05 Q 146.15 252.9 146.15 259.75 Q 146.15 266.65 141.05 271.5 Q 135.95 276.35 128.75 276.35 Q 121.55 276.35 116.45 271.5 Q 111.35 266.65 111.35 259.75 Q 111.35 252.9 116.45 248.05 Z" transform="translate(-0.05,-0.5)" fill="#000000"/>
		<path d="M 117.75 249.25 Q 122.3 244.9 128.75 244.9 Q 135.25 244.9 139.8 249.25 Q 144.35 253.6 144.35 259.75 Q 144.35 265.95 139.8 270.3 Q 135.25 274.65 128.75 274.65 Q 122.3 274.65 117.75 270.3 Q 113.15 265.95 113.15 259.75 Q 113.15 253.6 117.75 249.25 Z" transform="translate(-0.05,-0.5)" fill="#FDF006"/>
		<path d="M 197.5 9.225 Q 195.741 11.6281 194.1 14.3 Q 190.6 20.05 191.2 21.6 Q 191.85 23.15 199.45 22.3 Q 203.25 21.9 207.1 21.15 Q 203.65 21.95 199.95 23 Q 192.5 25.1 191.1 26.2 Q 188.65 28.15 190.1 31.5 Q 190.706 32.8326 191.6 33.9 Q 190.779 33.0119 189.8 32.15 Q 187.4 29.95 186.35 30.05 Q 184.85 30.25 184.5 36.5 Q 184.36 38.7061 184.375 40.9 Q 184.31 39.2244 184.15 37.5 Q 183.65 32.05 182.55 31.2 Q 181.45 30.35 177.35 34.5 L 173.45 38.8 L 177.95 32.7 Q 182.25 26.45 181.4 25.4 Q 180.55 24.4 174.5 28.15 L 168.6 32.05 L 173.8 28.45 Q 178.9 24.7 178.6 23.85 Q 178.1 22.55 160.25 21.8 Q 177.2 21.95 177.6 20.7 Q 177.9 19.9 169.65 14.15 L 161.4 8.5 L 169.85 13.55 Q 178.65 18.4 180.55 17.45 Q 182.45 16.5 182.35 8.15 Q 182.303 4.25938 181.9 0.5 Q 182.498 4.90234 183.35 9.35 Q 185.15 18.8 186.7 19.3 Q 188.25 19.8 193.15 14.4 Q 195.462 11.8521 197.5 9.225 Z" transform="translate(-0.05,-0.5)" fill="url(#grad6)"/>
		<path d="M 198 23 Q 192.05 24.75 190.75 25.8 Q 189.2 27 189.05 28.85 Q 188.9 29.85 189.35 31.05 Q 187.35 29.4 186.3 29.55 Q 184.8 29.7 184.2 33.95 Q 183.7 31.45 182.9 30.8 Q 182.5 30.5 181.9 30.55 Q 180.7 30.75 178.7 32.5 Q 182.85 26.35 181.8 25.1 Q 181.45 24.6 180.5 24.7 Q 179.65 24.85 178.3 25.45 Q 179.35 24.35 179.1 23.7 Q 178.95 23.25 178.1 23 Q 176.6 22.5 172.45 22.1 Q 175.25 21.9 175.7 21.8 Q 177.9 21.5 178.1 20.85 Q 178.25 20.35 177.6 19.65 Q 176.5 18.45 172.75 15.65 Q 178.1 18.35 180.15 18.1 Q 180.5 18.1 180.8 17.95 Q 182.8 16.9 182.9 9.85 Q 184.7 19.3 186.5 19.8 Q 186.9 19.9 187.2 19.85 Q 188.85 19.65 192.7 15.7 Q 190.1 20.25 190.7 21.8 Q 191.45 23.55 198 23 Z" transform="translate(-0.05,-0.5)" fill="url(#grad7)"/>
</svg>
