<?xml version="1.0"?>
<!DOCTYPE svg PUBLIC "-//W3C//DTD SVG 1.1//EN" "http://www.w3.org/Graphics/SVG/1.1/DTD/svg11.dtd">
<svg version='1.1' width='995px' height='353px' xmlns='http://www.w3.org/2000/svg' xmlns:xlink='http://www.w3.org/1999/xlink'>
	<defs>
		<radialGradient id="grad0" gradientUnits="userSpaceOnUse" cx="0.0" cy="0.0" r=".5" gradientTransform="matrix(-1143.1 194.275 -170.8 -1005.5 1256.35 281.85)">
		<stop offset="0%" stop-color="#FFFFFF"/>
		<stop offset="41.9608%" stop-color="#FFE691"/>
		<stop offset="100%" stop-color="#9D846F"/>
		</radialGradient>
		<radialGradient id="grad1" gradientUnits="userSpaceOnUse" cx="0.0" cy="0.0" r=".5" gradientTransform="matrix(-230.175 90.125 -79.25 -202.475 1028.55 31.2)">
		<stop offset="0%" stop-color="#C4C4C4"/>
		<stop offset="100%" stop-color="#738495"/>
		</radialGradient>
		<radialGradient id="grad2" gradientUnits="userSpaceOnUse" cx="0.0" cy="0.0" r=".5" gradientTransform="matrix(-88.4 34.6 -30.425 -77.75 1013.95 18.4)">
		<stop offset="0%" stop-color="#C4C4C4"/>
		<stop offset="100%" stop-color="#738495"/>
		</radialGradient>
		<radialGradient id="grad3" gradientUnits="userSpaceOnUse" cx="0.0" cy="0.0" r=".5" gradientTransform="matrix(-107.1 41.925 -36.875 -94.225 1050.25 -3.7)">
		<stop offset="0%" stop-color="#C4C4C4"/>
		<stop offset="100%" stop-color="#738495"/>
		</radialGradient>
		<radialGradient id="grad4" gradientUnits="userSpaceOnUse" cx="0.0" cy="0.0" r=".5" gradientTransform="matrix(-251.6 98.525 -86.625 -221.3 1093.9 66.8)">
		<stop offset="0%" stop-color="#C4C4C4"/>
		<stop offset="100%" stop-color="#738495"/>
		</radialGradient>
		<radialGradient id="grad5" gradientUnits="userSpaceOnUse" cx="0.0" cy="0.0" r=".5" gradientTransform="matrix(-88.4 34.6 -30.425 -77.75 1013.95 18.4)">
		<stop offset="0%" stop-color="#C4C4C4"/>
		<stop offset="100%" stop-color="#738495"/>
		</radialGradient>
		<radialGradient id="grad6" gradientUnits="userSpaceOnUse" cx="0.0" cy="0.0" r=".5" gradientTransform="matrix(-107.1 41.925 -36.875 -94.225 1050.25 -3.7)">
		<stop offset="0%" stop-color="#C4C4C4"/>
		<stop offset="100%" stop-color="#738495"/>
		</radialGradient>
		<radialGradient id="grad7" gradientUnits="userSpaceOnUse" cx="0.0" cy="0.0" r=".5" gradientTransform="matrix(-197.25 77.225 -67.925 -173.5 1138.05 124.85)">
		<stop offset="0%" stop-color="#C4C4C4"/>
		<stop offset="100%" stop-color="#738495"/>
		</radialGradient>
		<radialGradient id="grad8" gradientUnits="userSpaceOnUse" cx="0.0" cy="0.0" r=".5" gradientTransform="matrix(-206.8 80.975 -71.2 -181.9 1138.85 110.45)">
		<stop offset="0%" stop-color="#C4C4C4"/>
		<stop offset="100%" stop-color="#738495"/>
		</radialGradient>
		<radialGradient id="grad9" gradientUnits="userSpaceOnUse" cx="0.0" cy="0.0" r=".5" gradientTransform="matrix(-131.125 51.35 -45.15 -115.35 1090.3 85.8)">
		<stop offset="0%" stop-color="#C4C4C4"/>
		<stop offset="100%" stop-color="#738495"/>
		</radialGradient>
		<radialGradient id="grad10" gradientUnits="userSpaceOnUse" cx="0.0" cy="0.0" r=".5" gradientTransform="matrix(-200 78.325 -68.875 -175.95 1089.2 101.3)">
		<stop offset="0%" stop-color="#FEECA0"/>
		<stop offset="100%" stop-color="#FFD147"/>
		</radialGradient>
		<radialGradient id="grad11" gradientUnits="userSpaceOnUse" cx="0.0" cy="0.0" r=".5" gradientTransform="matrix(-147.825 57.875 -50.9 -130.05 1143.75 202.4)">
		<stop offset="0.392157%" stop-color="#A0A0A0"/>
		<stop offset="100%" stop-color="#000000"/>
		</radialGradient>
		<radialGradient id="grad12" gradientUnits="userSpaceOnUse" cx="0.0" cy="0.0" r=".5" gradientTransform="matrix(-23.25 7.725 -7.8 -15.925 1112.95 207.65)">
		<stop offset="0%" stop-color="#FEECA0"/>
		<stop offset="100%" stop-color="#FFD147"/>
		</radialGradient>
		<radialGradient id="grad13" gradientUnits="userSpaceOnUse" cx="0.0" cy="0.0" r=".5" gradientTransform="matrix(-20.4 6.9 -6.95 -14.65 1171.25 183.85)">
		<stop offset="0%" stop-color="#FEECA0"/>
		<stop offset="100%" stop-color="#FFD147"/>
		</radialGradient>
		<radialGradient id="grad14" gradientUnits="userSpaceOnUse" cx="0.0" cy="0.0" r=".5" gradientTransform="matrix(1143.1 194.275 170.8 -1005.5 115.35 281.85)">
		<stop offset="0%" stop-color="#FFFFFF"/>
		<stop offset="41.9608%" stop-color="#FFE691"/>
		<stop offset="100%" stop-color="#9D846F"/>
		</radialGradient>
		<radialGradient id="grad15" gradientUnits="userSpaceOnUse" cx="0.0" cy="0.0" r=".5" gradientTransform="matrix(329.6 56.025 49.25 -289.95 211.25 71.9)">
		<stop offset="0%" stop-color="#C4C4C4"/>
		<stop offset="100%" stop-color="#738495"/>
		</radialGradient>
		<radialGradient id="grad16" gradientUnits="userSpaceOnUse" cx="0.0" cy="0.0" r=".5" gradientTransform="matrix(126.6 21.525 18.925 -111.35 227.1 50.95)">
		<stop offset="0%" stop-color="#C4C4C4"/>
		<stop offset="100%" stop-color="#738495"/>
		</radialGradient>
		<radialGradient id="grad17" gradientUnits="userSpaceOnUse" cx="0.0" cy="0.0" r=".5" gradientTransform="matrix(153.375 26.075 22.925 -134.925 172.9 31.7)">
		<stop offset="0%" stop-color="#C4C4C4"/>
		<stop offset="100%" stop-color="#738495"/>
		</radialGradient>
		<radialGradient id="grad18" gradientUnits="userSpaceOnUse" cx="0.0" cy="0.0" r=".5" gradientTransform="matrix(360.3 61.25 53.85 -316.95 134.5 137.1)">
		<stop offset="0%" stop-color="#C4C4C4"/>
		<stop offset="100%" stop-color="#738495"/>
		</radialGradient>
		<radialGradient id="grad19" gradientUnits="userSpaceOnUse" cx="0.0" cy="0.0" r=".5" gradientTransform="matrix(126.6 21.525 18.925 -111.35 227.1 50.95)">
		<stop offset="0%" stop-color="#C4C4C4"/>
		<stop offset="100%" stop-color="#738495"/>
		</radialGradient>
		<radialGradient id="grad20" gradientUnits="userSpaceOnUse" cx="0.0" cy="0.0" r=".5" gradientTransform="matrix(153.375 26.075 22.925 -134.925 172.9 31.7)">
		<stop offset="0%" stop-color="#C4C4C4"/>
		<stop offset="100%" stop-color="#738495"/>
		</radialGradient>
		<radialGradient id="grad21" gradientUnits="userSpaceOnUse" cx="0.0" cy="0.0" r=".5" gradientTransform="matrix(282.475 48 42.225 -248.475 92 226.15)">
		<stop offset="0%" stop-color="#C4C4C4"/>
		<stop offset="100%" stop-color="#738495"/>
		</radialGradient>
		<radialGradient id="grad22" gradientUnits="userSpaceOnUse" cx="0.0" cy="0.0" r=".5" gradientTransform="matrix(296.2 50.35 44.275 -260.55 87 207.25)">
		<stop offset="0%" stop-color="#C4C4C4"/>
		<stop offset="100%" stop-color="#738495"/>
		</radialGradient>
		<radialGradient id="grad23" gradientUnits="userSpaceOnUse" cx="0.0" cy="0.0" r=".5" gradientTransform="matrix(187.8 31.925 28.075 -165.175 144.5 161.25)">
		<stop offset="0%" stop-color="#C4C4C4"/>
		<stop offset="100%" stop-color="#738495"/>
		</radialGradient>
		<radialGradient id="grad24" gradientUnits="userSpaceOnUse" cx="0.0" cy="0.0" r=".5" gradientTransform="matrix(286.45 48.675 42.8 -251.975 150.2 181.5)">
		<stop offset="0%" stop-color="#FEECA0"/>
		<stop offset="100%" stop-color="#FFD147"/>
		</radialGradient>
		<radialGradient id="grad25" gradientUnits="userSpaceOnUse" cx="0.0" cy="0.0" r=".5" gradientTransform="matrix(211.7 35.975 31.625 -186.2 105.75 330.35)">
		<stop offset="0.392157%" stop-color="#A0A0A0"/>
		<stop offset="100%" stop-color="#000000"/>
		</radialGradient>
		<radialGradient id="grad26" gradientUnits="userSpaceOnUse" cx="0.0" cy="0.0" r=".5" gradientTransform="matrix(32.95 3.85 5.95 -23.25 148 328.85)">
		<stop offset="0%" stop-color="#FEECA0"/>
		<stop offset="100%" stop-color="#FFD147"/>
		</radialGradient>
		<radialGradient id="grad27" gradientUnits="userSpaceOnUse" cx="0.0" cy="0.0" r=".5" gradientTransform="matrix(28.9 3.55 5.175 -21.3 64.3 313.35)">
		<stop offset="0%" stop-color="#FEECA0"/>
		<stop offset="100%" stop-color="#FFD147"/>
		</radialGradient>
	</defs>
	<g transform="translate(-0.0144537,-38.6412)">
		<path d="M 1341.1 393.8 Q 1332.9 396.8 1324.4 400.1 Q 1306.4 402.95 1282.35 399.95 Q 1260.05 397.15 1236.45 389.9 Q 1195.95 377.5 1167.65 348.25 Q 1146.5 326.45 1124.7 285.7 Q 1100.9 238.25 1086.85 214.25 Q 1062.4 172.65 1033.3 145.9 Q 985.25 101.7 937.95 95.75 Q 908.2 92 884.25 103.2 L 882.5 100.2 L 890.45 96.4 Q 900.95 91.95 913.9 88.7 Q 955.25 78.3 1005.2 83.85 Q 1056.85 89.6 1167.7 167.95 Q 1207.25 195.9 1257.45 235.35 Q 1272.15 246.95 1332 295.05 Q 1340.05 301.45 1346.85 308.2 Q 1373.75 355.45 1360.35 379.55 Q 1354.95 385.5 1347.5 390.25 Z" transform="translate(0.05,0) scale(0.724976,0.724976)" fill="url(#grad0)"/>
		<path d="M 915.3 95.35 L 906.95 95.95 L 948.1 81.95 L 951.8 82.1 Z" transform="translate(0.05,0) scale(0.724976,0.724976)" fill="#5C3C20"/>
		<path d="M 967.2 81.9 L 970.7 82.1 L 935.95 94.65 L 928.05 95.25 Z" transform="translate(0.05,0) scale(0.724976,0.724976)" fill="#5C3C20"/>
		<path d="M 986.45 84.25 L 989.8 84.4 L 956.25 96.2 L 948.6 96.8 Z" transform="translate(0.05,0) scale(0.724976,0.724976)" fill="#5C3C20"/>
		<path d="M 1011.5 87.6 L 1015.25 87.9 L 975.2 104.4 L 970.05 102.75 Z" transform="translate(0.05,0) scale(0.724976,0.724976)" fill="#5C3C20"/>
		<path d="M 1035 94.05 L 1039.15 94.5 L 994.95 114.1 L 989.15 111.9 Z" transform="translate(0.05,0) scale(0.724976,0.724976)" fill="#5C3C20"/>
		<path d="M 1014.3 127.85 L 1008.9 124.8 L 1054.75 106.95 L 1058.9 107.4 Z" transform="translate(0.05,0) scale(0.724976,0.724976)" fill="#5C3C20"/>
		<path d="M 1033.3 145.9 L 1027.9 142.8 L 1073.75 124.95 L 1077.95 125.4 Z" transform="translate(0.05,0) scale(0.724976,0.724976)" fill="#5C3C20"/>
		<path d="M 1093.8 147.65 L 1098 148.05 L 1053.35 168.55 L 1047.95 165.45 Z" transform="translate(0.05,0) scale(0.724976,0.724976)" fill="#5C3C20"/>
		<path d="M 1091.65 230.4 L 1086.3 227.35 L 1132.15 209.5 L 1136.3 209.95 Z" transform="translate(0.05,0) scale(0.724976,0.724976)" fill="#5C3C20"/>
		<path d="M 1123.05 271.75 L 1109.2 272.05 L 1232.85 221.95 L 1243.8 219.65 Z" transform="translate(0.05,0) scale(0.724976,0.724976)" fill="#5C3C20"/>
		<path d="M 1270.25 243.55 L 1283.7 245.35 L 1140.85 315.5 L 1123.25 304.3 Z" transform="translate(0.05,0) scale(0.724976,0.724976)" fill="#5C3C20"/>
		<path d="M 1297.4 269 L 1310.35 271.3 L 1175.15 344.65 L 1158.05 332 Z" transform="translate(0.05,0) scale(0.724976,0.724976)" fill="#5C3C20"/>
		<path d="M 1316.5 295.25 L 1328.25 297.65 L 1206.9 367.7 L 1191.2 355.1 Z" transform="translate(0.05,0) scale(0.724976,0.724976)" fill="#5C3C20"/>
		<path d="M 1115.9 181 L 1120.05 181.4 L 1075.45 201.9 L 1070.05 198.8 Z" transform="translate(0.05,0) scale(0.724976,0.724976)" fill="#5C3C20"/>
		<path d="M 1182.7 188.05 L 1174.65 176.75 L 1285.7 250.75 L 1293.75 258.5 Z" transform="translate(0.05,0) scale(0.724976,0.724976)" fill="#5C3C20"/>
		<path d="M 1142.45 150.8 L 1134.75 149.7 Q 1086 99.35 1002.95 87.6 Q 977 83.9 950.75 84.55 L 929.65 85.9 L 932.75 84.15 L 937.55 83.35 Q 943.8 82.45 951.05 81.95 Q 974.3 80.45 999.05 83.85 Q 1078.2 94.75 1142.45 150.8 Z" transform="translate(0.05,0) scale(0.724976,0.724976)" fill="#5C3C20"/>
		<path d="M 1308 276.6 Q 1319.85 289.55 1328.9 302.55 Q 1357.35 343.3 1349.15 370.4 Q 1342.2 393.45 1309 404 L 1307.4 399.55 Q 1337.85 389.8 1344 369.4 Q 1351.65 343.95 1323.25 303.95 Q 1314.35 291.35 1302.85 278.85 Q 1293 268.7 1292.85 268.55 L 1296.85 265.2 Q 1301.8 269.85 1308 276.6 Z" transform="translate(0.05,0) scale(0.724976,0.724976)" fill="#5C3C20"/>
		<path d="M 1315.25 329.85 Q 1328 355 1320.1 372.4 Q 1310.75 392.9 1273.6 399.25 L 1272.8 394.55 Q 1306.9 388.75 1315.1 370.8 Q 1322.25 355.05 1309.8 331.1 Q 1305.9 323.55 1300.45 316.1 Q 1295.8 310.1 1295.7 310 L 1299.95 306.95 Q 1302.5 309.85 1305.45 313.95 Q 1311.2 321.85 1315.25 329.85 Z" transform="translate(0.05,0) scale(0.724976,0.724976)" fill="#5C3C20"/>
		<path d="M 1297.05 334.55 Q 1296.25 352.3 1284.9 364.3 Q 1264.6 385.8 1214.05 383.1 Q 1194.05 403.7 1173.6 430.15 Q 1136.1 478.5 1119.9 519.15 L 1114.85 517.75 Q 1132.2 474.3 1173.05 422.65 Q 1193.55 396.8 1211 379.15 L 1211.9 378.2 L 1213.25 378.3 Q 1262.05 381.15 1280.8 361.35 Q 1290.95 350.65 1291.6 334.2 Q 1291.8 329 1291 323.85 Q 1290.2 319.7 1290.15 319.65 L 1295.35 318.3 Q 1295.9 320.05 1296.4 323.25 Q 1297.3 328.9 1297.05 334.55 Z" transform="translate(0.05,0) scale(0.724976,0.724976)" fill="#5C3C20"/>
		<path d="M 1321.05 403.75 Q 1296.05 411.4 1271.95 424.1 Q 1195.25 464.55 1156.1 539.65 L 1151.2 537.85 Q 1191.15 461.2 1269.6 419.95 Q 1294.25 407 1319.85 399.15 Q 1332.75 395.2 1341.1 393.8 L 1341.8 398.5 Q 1333.65 399.9 1321.05 403.75 Z" transform="translate(0.05,0) scale(0.724976,0.724976)" fill="#5C3C20"/>
		<path d="M 1092.2 295.65 Q 1115.55 332.6 1127.35 349.4 Q 1146.95 377.45 1163.8 394.45 Q 1183.95 414.8 1203.95 423.6 Q 1226.25 433.45 1250.05 429.7 L 1250.8 434.4 Q 1225.7 438.35 1202.4 428.4 Q 1181.55 419.5 1160.75 398.8 Q 1143.35 381.45 1123.35 352.9 Q 1111.25 335.65 1087.5 298.1 Q 1071.15 272.3 1063.05 260.05 Q 1049.1 239 1037.45 223.8 Q 995.95 169.7 948.6 161.9 Q 933.75 159.45 920.05 162 Q 915.7 162.8 912 164 Q 909.15 165.05 909.05 165.1 L 906.65 160.9 Q 906.75 160.85 909.8 159.7 Q 913.75 158.4 918.35 157.5 Q 932.95 154.65 948.65 157.05 Q 998.75 164.65 1041.95 221 Q 1053.7 236.35 1067.7 257.45 Q 1076 270 1092.2 295.65 Z" transform="translate(0.05,0) scale(0.724976,0.724976)" fill="#5C3C20"/>
		<path d="M 996.5 283.25 Q 1027.35 299.7 1054.55 343 L 1055.9 345.15 Q 1077.35 379.2 1088.3 395.1 Q 1106.65 421.7 1122.1 438.25 Q 1160.9 479.75 1197.3 473.55 L 1198.1 478.25 Q 1159.2 484.85 1119.05 442.55 Q 1103.05 425.75 1084.3 398.55 Q 1073.1 382.35 1051.2 347.6 L 1049.85 345.45 Q 1023.8 304.1 994.35 287.95 Q 985.1 282.85 976.6 280.95 Q 969.85 280 969.75 280 L 969.7 275.25 Q 972.65 275.1 977.6 276.1 Q 986.7 278 996.5 283.25 Z" transform="translate(0.05,0) scale(0.724976,0.724976)" fill="#5C3C20"/>
		<path d="M 1001.7 357.4 Q 1008.8 363.5 1015.65 371.45 Q 1037.2 396.3 1048.95 429.85 Q 1055.8 449.5 1070.1 465.85 Q 1083.35 481 1101.35 491.45 Q 1118.5 501.5 1137 505.55 Q 1155.45 509.55 1171.5 506.85 L 1172.3 511.5 Q 1155.45 514.35 1136.05 510.2 Q 1116.65 506 1098.65 495.6 Q 1079.8 484.75 1065.9 468.95 Q 1050.95 451.95 1043.8 431.45 Q 1032.45 398.95 1011.2 374.45 Q 1004.55 366.75 997.65 360.8 Q 992.1 356.3 992 356.25 L 995.35 352.4 Q 997.95 354.15 1001.7 357.4 Z" transform="translate(0.05,0) scale(0.724976,0.724976)" fill="#5C3C20"/>
		<path d="M 1170.95 355.85 Q 1149.85 380.7 1128.9 413.65 Q 1087.1 479.45 1085.3 523.15 L 1079.9 523.15 Q 1081.7 478.35 1123.1 412.85 Q 1144.05 379.75 1166.75 353.1 Z" transform="translate(0.05,0) scale(0.724976,0.724976)" fill="#5C3C20"/>
		<path d="M 1130 305.95 Q 1129.85 306.25 1118.85 327.25 Q 1105.9 353.3 1095.5 379.6 Q 1062.4 463.4 1066.8 518.8 L 1061.45 519.35 Q 1057 463.1 1091.1 375.8 Q 1108.15 332 1126.55 298.7 Z" transform="translate(0.05,0) scale(0.724976,0.724976)" fill="#5C3C20"/>
		<path d="M 1058.15 179.35 Q 1044.35 224.95 1033.6 287.55 Q 1012.15 412.35 1025.8 502.75 L 1020.45 503.6 Q 1006.7 412.6 1028.25 287.05 Q 1039.05 224.15 1052.95 178.25 Z" transform="translate(0.05,0) scale(0.724976,0.724976)" fill="#5C3C20"/>
		<path d="M 1005.9 120.3 Q 1003.7 195.4 1004.5 278.95 Q 1006.1 445.7 1020.75 497.35 L 1015.55 498.7 Q 1000.75 446.7 999.15 279.45 Q 998.35 195.65 1000.5 120.35 Z" transform="translate(0.05,0) scale(0.724976,0.724976)" fill="#5C3C20"/>
		<path d="M 938.75 95.8 Q 938.85 96 944.9 110.35 Q 952.25 128.9 959.2 151 Q 981.3 221.15 991.2 299.3 Q 1007 423.95 1014.5 492.75 L 1009.15 493.4 Q 1001.65 424.6 985.85 300.05 Q 976.05 222.35 954.05 152.65 Q 947.2 130.75 939.85 112.25 Q 933.9 98 933.8 97.8 Z" transform="translate(0.05,0) scale(0.724976,0.724976)" fill="#5C3C20"/>
		<path d="M 883.75 102.5 Q 883.95 102.8 895.85 123 Q 910.2 147.85 922.85 172.1 Q 963.25 249.4 972.3 292.75 Q 981.3 335.8 996.65 417.8 Q 1004.3 458.85 1010.3 492.1 L 1005 493.05 Q 999 459.8 991.35 418.8 Q 976.05 336.8 967.05 293.8 Q 958.05 250.9 917.95 174.1 Q 905.3 149.95 891.05 125.3 Q 879.2 105.2 879 104.9 Z" transform="translate(0.05,0) scale(0.724976,0.724976)" fill="#5C3C20"/>
		<path d="M 1370.65 345.15 Q 1374.5 366.15 1365.45 381.7 Q 1355.15 399.4 1330.3 405 Q 1301.65 411.5 1257 400.85 Q 1212.25 390.2 1181.85 367.85 Q 1156.15 348.9 1134.45 316.25 Q 1125.8 303.3 1115.3 284.5 Q 1112.95 280.2 1096.2 249.35 Q 1070.2 201.35 1048.65 170.35 Q 1021.9 131.9 989.1 113.2 Q 962.9 98.25 934.05 96.6 Q 913.4 95.4 893.55 100.95 Q 887.35 102.7 881.95 104.9 L 877.8 106.75 L 882.5 100.2 Q 914.45 90.9 942.2 93.85 Q 958.4 95.55 972.3 101.55 Q 1016.55 120.5 1049.05 160.7 Q 1061.95 176.65 1075.4 198.8 Q 1083 211.3 1098.4 239.25 Q 1113.1 265.8 1121.55 279.5 Q 1135.05 301.25 1148.35 317.05 Q 1181.4 356.25 1226.85 373.9 Q 1276.1 393 1313.85 390.35 Q 1333.15 388.95 1344.7 381.35 Q 1357.1 373.2 1359.25 358.6 Q 1362.15 339 1330.65 302.65 Q 1320.8 291.3 1308.7 279.65 L 1270.55 244.55 Q 1287.6 250.35 1307.1 264.5 Q 1331.75 282.4 1354.1 309.75 Q 1367 325.55 1370.65 345.15 Z" transform="translate(0.05,0) scale(0.724976,0.724976)" fill="#5C3C20"/>
		<path d="M 976.3 53.3 L 990.15 56 L 990.45 57 Q 990.85 58.25 991.55 59.55 Q 992.25 60.9 994.3 61.45 Q 995.35 61.7 996.25 61.7 L 1001.2 59.85 L 1021.85 67.15 L 1022.1 80.3 L 969.1 108.4 Q 962.25 101.1 947.8 91.2 L 934.7 82.75 L 934.05 73.3 Z" transform="translate(0.05,0) scale(0.724976,0.724976)" fill="url(#grad1)"/>
		<path d="M 996.05 61.7 L 959.85 77.6 Q 960.95 79.75 959.1 81.9 Q 957.1 84.2 954.1 82.3 Q 951.2 80.4 951.15 76.55 Q 951.1 73.1 952.4 72.45 L 989.75 55.9 L 990.15 56 L 990.45 57 Q 990.85 58.25 991.55 59.55 Q 992.55 61.45 996.05 61.7 Z" transform="translate(0.05,0) scale(0.724976,0.724976)" fill="url(#grad2)"/>
		<path d="M 1021.85 67.15 L 1023.4 81.05 L 969.1 108.4 L 966.5 88.6 Z" transform="translate(0.05,0) scale(0.724976,0.724976)" fill="url(#grad3)"/>
		<path d="M 947 93.05 Q 945.8 90.75 946.1 88.55 Q 946.4 86.35 948 85.55 Q 949.6 84.75 951.6 85.85 Q 953.55 86.95 954.75 89.3 Q 955.95 91.65 955.65 93.8 Q 955.35 96 953.75 96.8 Q 952.2 97.6 950.2 96.5 Q 948.2 95.4 947 93.05 Z" transform="translate(0.05,0) scale(0.724976,0.724976)" fill="#000000"/>
		<path d="M 1055.35 89 Q 1056.7 89.55 1057.85 89.65 L 1064.6 87.7 L 1090.95 100.3 L 1089.75 118.35 L 1016.6 150.15 Q 1008.4 139.3 990.5 123.85 L 974.25 110.6 L 974.5 97.55 L 1032.55 75.55 L 1050.5 81 L 1050.8 82.4 Q 1051.2 84.15 1051.95 86.1 Q 1052.7 88 1055.35 89 Z" transform="translate(0.05,0) scale(0.724976,0.724976)" fill="url(#grad4)"/>
		<path d="M 1057.6 89.6 L 1008 106.75 Q 1009.25 109.8 1006.5 112.55 Q 1003.65 115.45 999.9 112.4 Q 996.25 109.5 996.65 104.15 Q 997 99.45 998.8 98.7 Q 999.9 98.3 1022 90.55 Q 1043.5 83.05 1049.95 80.85 L 1050.5 81 L 1050.8 82.4 Q 1051.2 84.15 1051.95 86.1 Q 1052.6 87.75 1054.8 88.75 Q 1056.1 89.4 1057.6 89.6 Z" transform="translate(0.05,0) scale(0.724976,0.724976)" fill="url(#grad5)"/>
		<path d="M 1016.6 150.15 L 1015.5 122.65 L 1090.95 100.3 L 1091.4 119.6 Z" transform="translate(0.05,0) scale(0.724976,0.724976)" fill="url(#grad6)"/>
		<path d="M 989.25 126.3 Q 987.95 122.95 988.55 119.95 Q 989.2 117 991.4 116.1 Q 993.6 115.25 996.1 117 Q 998.6 118.75 999.9 122.1 Q 1001.2 125.45 1000.6 128.4 Q 999.95 131.4 997.75 132.25 Q 995.55 133.1 993.05 131.4 Q 990.55 129.65 989.25 126.3 Z" transform="translate(0.05,0) scale(0.724976,0.724976)" fill="#000000"/>
		<path d="M 1151 142.4 L 1164.2 151.95 Q 1177.6 162.15 1178.9 165.4 Q 1180.5 169.5 1177.4 183.25 Q 1174.2 197.4 1170.2 201.45 Q 1165.45 206.2 1138.2 218.8 Q 1109.85 231.9 1102.15 231.85 Q 1095.05 231.8 1081.85 219.8 Q 1065.8 203.8 1057.7 195.9 Q 1048.65 187.05 1034.05 170.4 L 1021.2 155.55 Q 1021.05 150.6 1021.05 145.55 Q 1021 135.4 1021.7 134.95 Q 1022.6 134.35 1062.55 120.35 Q 1102.6 106.3 1105.2 105.7 Q 1107.45 105.25 1115.25 112.25 Q 1119.15 115.8 1123.3 120 Q 1123.8 120.4 1122.75 127.55 Q 1121.55 135.2 1122 136.8 Q 1122.6 138.85 1129.55 143.7 Q 1136.15 148.25 1137.15 148.15 Q 1137.8 148.1 1144.45 145.25 Q 1147.8 143.8 1151 142.4 Z" transform="translate(0.05,0) scale(0.724976,0.724976)" fill="url(#grad7)"/>
		<path d="M 1177.4 183.25 Q 1174.2 197.4 1170.2 201.45 Q 1165.8 205.85 1140.4 217.8 Q 1114.05 230.15 1104.1 231.7 Q 1102.5 225.8 1102.65 211.05 Q 1102.85 195.55 1105.1 192.1 Q 1107.15 188.95 1138.85 178.05 Q 1155.65 172.25 1178.7 165 L 1178.9 165.4 Q 1180.5 169.5 1177.4 183.25 Z" transform="translate(0.05,0) scale(0.724976,0.724976)" fill="url(#grad8)"/>
		<path d="M 1042.95 156 Q 1044.85 150.1 1047.15 147.75 Q 1049.5 145.4 1122.95 119.65 L 1123.3 120 Q 1123.8 120.4 1122.75 127.55 Q 1121.55 135.2 1122 136.8 Q 1122.55 138.65 1128.7 142.95 Q 1133.95 146.65 1137.15 148.15 Q 1112.6 155.3 1096.75 160 Q 1066.8 168.95 1065.8 170.1 Q 1064.1 173.7 1062.95 176.05 Q 1060.75 180.5 1058.1 181.15 Q 1055.1 181.85 1049.15 175.55 Q 1043.8 169.85 1042.15 165.7 Q 1040.85 162.45 1042.95 156 Z" transform="translate(0.05,0) scale(0.724976,0.724976)" fill="url(#grad9)"/>
		<path d="M 1141.4 136.6 Q 1140.8 136.2 1125.6 140.65 L 1125.55 140.7 Q 1111.2 144.95 1092.95 150.8 Q 1075.05 156.6 1074.2 157.25 Q 1072.9 158.25 1074.5 166.85 Q 1066.35 169.55 1065.8 170.1 L 1065.55 170.5 Q 1063.25 155.05 1066.35 150.45 Q 1067.9 148.15 1086.2 141.95 Q 1103.1 136.25 1122.2 131.15 Q 1134.4 127.9 1142 126.45 Q 1150.4 124.85 1151.25 125.85 Q 1153 127.75 1152.5 134.2 Q 1152.2 138.05 1151.2 142.55 L 1151 142.4 Q 1145.2 144.95 1141.1 146.65 Q 1142.55 137.4 1141.4 136.6 Z" transform="translate(0.05,0) scale(0.724976,0.724976)" fill="url(#grad10)"/>
		<path d="M 1168.65 179.75 L 1169.55 186.45 Q 1170.2 193.35 1168.75 194.35 Q 1166.7 195.75 1143.85 204.65 Q 1120.5 213.7 1118.9 213.35 Q 1117.2 213 1115.55 207.9 Q 1113.95 202.85 1114.55 200.25 Q 1115.1 198.15 1141.9 188.75 Q 1155.35 184.05 1168.65 179.75 Z" transform="translate(0.05,0) scale(0.724976,0.724976)" fill="url(#grad11)"/>
		<path d="M 1168.4 186.2 L 1117.85 204.1 L 1116.75 200.8 L 1167.25 182.9 Z" transform="translate(0.05,0) scale(0.724976,0.724976)" fill="#000000"/>
		<path d="M 1170.75 192.15 L 1120.2 210.05 L 1119.05 206.7 L 1169.6 188.8 Z" transform="translate(0.05,0) scale(0.724976,0.724976)" fill="#000000"/>
		<path d="M 1102.55 208.85 Q 1102.35 204.75 1105.3 201.5 Q 1108.2 198.3 1112.5 197.75 Q 1116.85 197.25 1120.05 199.8 Q 1123.2 202.35 1123.35 206.45 Q 1123.55 210.55 1120.65 213.8 Q 1117.7 217.05 1113.4 217.55 Q 1109.05 218.05 1105.9 215.5 Q 1102.7 212.95 1102.55 208.85 Z" transform="translate(0.05,0) scale(0.724976,0.724976)" fill="url(#grad12)"/>
		<path d="M 1162.1 184.7 Q 1162.05 180.95 1164.65 178.05 Q 1167.25 175.15 1171.05 174.8 Q 1174.85 174.45 1177.6 176.8 Q 1180.35 179.2 1180.4 183 Q 1180.5 186.75 1177.85 189.65 Q 1175.2 192.6 1171.4 192.95 Q 1167.6 193.3 1164.9 190.9 Q 1162.15 188.5 1162.1 184.7 Z" transform="translate(0.05,0) scale(0.724976,0.724976)" fill="url(#grad13)"/>
		<path d="M 1070 193.3 Q 1074.1 192.5 1077.6 196.1 Q 1081.1 199.75 1081.9 205.65 Q 1082.75 211.55 1080.5 216.3 Q 1078.2 221.05 1074.1 221.85 Q 1070 222.7 1066.55 219.05 Q 1063.05 215.45 1062.2 209.5 Q 1061.35 203.6 1063.65 198.85 Q 1065.9 194.1 1070 193.3 Z" transform="translate(0.05,0) scale(0.724976,0.724976)" fill="#000000"/>
		<path d="M 489.25 100.2 L 487.45 103.2 Q 463.55 92 433.8 95.75 Q 386.45 101.7 338.4 145.9 Q 309.3 172.65 284.9 214.25 Q 270.8 238.25 247.05 285.7 Q 225.25 326.45 204.1 348.25 Q 175.8 377.5 135.3 389.9 Q 111.65 397.15 89.4 399.95 Q 65.35 402.95 47.3 400.1 Q 39.3 396.95 30.65 393.8 Q 28 392.6 24.25 390.25 Q 16.8 385.5 11.4 379.55 Q 5 368.05 7.9 351.05 Q 11 332.65 24.9 308.2 Q 31.65 301.55 39.7 295.05 Q 100.4 246.3 114.3 235.35 Q 164.5 195.9 204 167.95 Q 314.85 89.6 366.5 83.85 Q 416.45 78.3 457.85 88.7 Q 478.55 93.9 489.25 100.2 Z" transform="translate(0.05,0) scale(0.724976,0.724976)" fill="url(#grad14)"/>
		<path d="M 423.6 81.95 L 464.75 95.95 L 456.45 95.35 L 419.95 82.1 Z" transform="translate(0.05,0) scale(0.724976,0.724976)" fill="#5C3C20"/>
		<path d="M 435.75 94.65 L 401 82.1 L 404.5 81.9 L 443.7 95.25 Z" transform="translate(0.05,0) scale(0.724976,0.724976)" fill="#5C3C20"/>
		<path d="M 415.5 96.2 L 381.9 84.4 L 385.3 84.25 L 423.15 96.8 Z" transform="translate(0.05,0) scale(0.724976,0.724976)" fill="#5C3C20"/>
		<path d="M 360.2 87.6 L 401.7 102.75 L 396.55 104.4 L 356.5 87.9 Z" transform="translate(0.05,0) scale(0.724976,0.724976)" fill="#5C3C20"/>
		<path d="M 336.7 94.05 L 382.6 111.9 L 376.8 114.1 L 332.55 94.5 Z" transform="translate(0.05,0) scale(0.724976,0.724976)" fill="#5C3C20"/>
		<path d="M 357.45 127.85 L 312.8 107.4 L 317 106.95 L 362.85 124.8 Z" transform="translate(0.05,0) scale(0.724976,0.724976)" fill="#5C3C20"/>
		<path d="M 338.4 145.9 L 293.8 125.4 L 297.95 124.95 L 343.8 142.8 Z" transform="translate(0.05,0) scale(0.724976,0.724976)" fill="#5C3C20"/>
		<path d="M 277.9 147.65 L 323.8 165.45 L 318.4 168.55 L 273.75 148.05 Z" transform="translate(0.05,0) scale(0.724976,0.724976)" fill="#5C3C20"/>
		<path d="M 280.05 230.4 L 235.4 209.95 L 239.6 209.5 L 285.45 227.35 Z" transform="translate(0.05,0) scale(0.724976,0.724976)" fill="#5C3C20"/>
		<path d="M 254.1 275.75 L 209.5 255.25 L 213.65 254.8 L 259.5 272.65 Z" transform="translate(0.05,0) scale(0.724976,0.724976)" fill="#5C3C20"/>
		<path d="M 190.2 290.95 L 236.05 308.8 L 230.65 311.85 L 186 291.4 Z" transform="translate(0.05,0) scale(0.724976,0.724976)" fill="#5C3C20"/>
		<path d="M 160.1 323.15 L 205.95 340.95 L 200.55 344.05 L 155.9 323.55 Z" transform="translate(0.05,0) scale(0.724976,0.724976)" fill="#5C3C20"/>
		<path d="M 129.35 345.6 L 175.25 363.45 L 169.85 366.5 L 125.2 346.05 Z" transform="translate(0.05,0) scale(0.724976,0.724976)" fill="#5C3C20"/>
		<path d="M 255.85 181 L 301.7 198.8 L 296.3 201.9 L 251.65 181.4 Z" transform="translate(0.05,0) scale(0.724976,0.724976)" fill="#5C3C20"/>
		<path d="M 421 84.55 Q 394.75 83.9 368.8 87.6 Q 285.75 99.35 237 149.7 L 229.3 150.8 Q 293.5 94.75 372.65 83.85 Q 397.4 80.45 420.65 81.95 Q 432.25 82.7 438.95 84.15 L 442.1 85.9 Q 434.15 84.85 421 84.55 Z" transform="translate(0.05,0) scale(0.724976,0.724976)" fill="#5C3C20"/>
		<path d="M 63.75 276.6 Q 70.35 269.4 74.9 265.2 L 78.85 268.55 Q 78.7 268.7 68.9 278.85 Q 57.4 291.4 48.5 303.95 Q 20.1 343.95 27.75 369.4 Q 33.95 389.85 64.35 399.55 L 62.7 404 Q 29.5 393.45 22.55 370.4 Q 14.4 343.3 42.85 302.55 Q 51.9 289.55 63.75 276.6 Z" transform="translate(0.05,0) scale(0.724976,0.724976)" fill="#5C3C20"/>
		<path d="M 56.45 329.85 Q 60.5 321.85 66.25 313.95 Q 69.25 309.85 71.75 306.95 L 76.05 310 Q 76 310.1 71.3 316.1 Q 65.85 323.55 61.95 331.1 Q 49.5 355.05 56.65 370.8 Q 64.8 388.75 98.95 394.55 L 98.15 399.25 Q 61 392.9 51.65 372.4 Q 43.75 355 56.45 329.85 Z" transform="translate(0.05,0) scale(0.724976,0.724976)" fill="#5C3C20"/>
		<path d="M 74.7 334.55 Q 74.45 328.9 75.35 323.25 Q 75.75 320.5 76.35 318.3 L 81.55 319.65 Q 81.55 319.7 80.7 323.85 Q 79.95 329 80.15 334.2 Q 80.75 350.65 90.9 361.35 Q 109.65 381.15 158.45 378.3 L 159.8 378.2 L 160.75 379.15 Q 160.9 379.3 172.15 391.3 Q 185.85 406.45 198.7 422.65 Q 239.55 474.35 256.9 517.75 L 251.8 519.15 Q 235.6 478.5 198.15 430.15 Q 177.65 403.7 157.65 383.1 Q 107.15 385.8 86.85 364.3 Q 75.5 352.3 74.7 334.55 Z" transform="translate(0.05,0) scale(0.724976,0.724976)" fill="#5C3C20"/>
		<path d="M 30.65 393.8 Q 30.8 393.85 36.55 395 Q 43.75 396.7 51.85 399.15 Q 77.45 407 102.1 419.95 Q 180.55 461.2 220.5 537.85 L 215.65 539.65 Q 176.5 464.55 99.8 424.1 Q 75.7 411.4 50.65 403.75 Q 42.7 401.3 35.65 399.7 Q 31.2 398.65 29.9 398.5 Z" transform="translate(0.05,0) scale(0.724976,0.724976)" fill="#5C3C20"/>
		<path d="M 453.35 157.5 Q 460.65 158.9 465.05 160.9 L 462.7 165.1 Q 458.55 163.25 451.7 162 Q 437.95 159.45 423.1 161.9 Q 375.75 169.7 334.25 223.8 Q 322.55 239.05 308.65 260.05 Q 300 273.1 284.25 298.1 Q 260.45 335.75 248.4 352.9 Q 228.35 381.45 210.95 398.8 Q 190.2 419.5 169.35 428.4 Q 146.05 438.35 120.95 434.4 L 121.65 429.7 Q 145.45 433.45 167.8 423.6 Q 187.75 414.8 207.95 394.45 Q 224.8 377.4 244.4 349.4 Q 256.2 332.55 279.5 295.65 Q 295.45 270.4 304.05 257.45 Q 318 236.4 329.8 221 Q 373 164.65 423.1 157.05 Q 438.8 154.65 453.35 157.5 Z" transform="translate(0.05,0) scale(0.724976,0.724976)" fill="#5C3C20"/>
		<path d="M 375.25 283.25 Q 390.8 274.9 402 275.25 L 401.95 280 Q 392.15 279.85 377.4 287.95 Q 347.9 304.1 321.9 345.45 L 320.55 347.6 Q 298.7 382.3 287.45 398.55 Q 268.65 425.75 252.7 442.55 Q 212.55 484.85 173.65 478.25 L 174.45 473.55 Q 210.85 479.75 249.65 438.25 Q 265.1 421.7 283.45 395.1 Q 294.4 379.15 315.8 345.15 L 317.15 343 Q 344.4 299.7 375.25 283.25 Z" transform="translate(0.05,0) scale(0.724976,0.724976)" fill="#5C3C20"/>
		<path d="M 376.4 352.4 L 379.75 356.25 Q 371.15 362.2 360.55 374.45 Q 339.3 398.9 327.95 431.45 Q 320.75 451.95 305.8 468.95 Q 291.9 484.75 273.1 495.6 Q 255.05 506 235.65 510.2 Q 216.3 514.35 199.45 511.5 L 200.25 506.85 Q 216.3 509.55 234.75 505.55 Q 253.25 501.5 270.4 491.45 Q 288.4 481 301.65 465.85 Q 315.95 449.5 322.8 429.85 Q 334.5 396.3 356.05 371.45 Q 366.95 358.9 376.4 352.4 Z" transform="translate(0.05,0) scale(0.724976,0.724976)" fill="#5C3C20"/>
		<path d="M 205 353.1 Q 211.55 360.8 219.6 371.3 Q 235.4 392 248.6 412.85 Q 290 478.35 291.8 523.15 L 286.45 523.15 Q 284.65 479.4 242.85 413.65 Q 229.7 393 214.1 372.6 Q 200.95 356.1 200.75 355.85 Z" transform="translate(0.05,0) scale(0.724976,0.724976)" fill="#5C3C20"/>
		<path d="M 245.2 298.7 Q 245.4 299 256.65 321.05 Q 269.95 348.35 280.65 375.8 Q 314.7 463.1 310.3 519.35 L 304.9 518.8 Q 309.3 463.4 276.2 379.6 Q 265.85 353.3 252.9 327.25 Q 241.95 306.25 241.75 305.95 Z" transform="translate(0.05,0) scale(0.724976,0.724976)" fill="#5C3C20"/>
		<path d="M 313.6 179.35 L 318.75 178.25 Q 332.65 224.15 343.45 287.05 Q 365 412.6 351.25 503.6 L 345.95 502.75 Q 359.6 412.35 338.2 287.55 Q 327.45 224.95 313.6 179.35 Z" transform="translate(0.05,0) scale(0.724976,0.724976)" fill="#5C3C20"/>
		<path d="M 365.85 120.3 L 371.2 120.35 Q 373.4 195.65 372.6 279.45 Q 370.95 446.65 356.2 498.7 L 350.95 497.35 Q 365.65 445.7 367.25 278.95 Q 368.05 195.4 365.85 120.3 Z" transform="translate(0.05,0) scale(0.724976,0.724976)" fill="#5C3C20"/>
		<path d="M 432.95 95.8 L 437.95 97.8 Q 428.65 117.7 417.65 152.65 Q 395.7 222.3 385.85 300.05 Q 376.05 377.65 368.35 443.15 Q 364.5 475.85 362.55 493.4 L 357.2 492.75 Q 359.15 475.2 363 442.5 Q 370.7 376.95 380.5 299.3 Q 390.4 221.15 412.5 151 Q 423.6 115.85 432.95 95.8 Z" transform="translate(0.05,0) scale(0.724976,0.724976)" fill="#5C3C20"/>
		<path d="M 488 102.5 L 492.75 104.9 Q 473.95 135.6 453.85 174.1 Q 413.7 250.9 404.7 293.8 Q 395.65 337.1 380.4 418.8 Q 372.75 459.8 366.75 493.05 L 361.4 492.1 Q 367.45 458.85 375.1 417.8 Q 390.4 335.8 399.4 292.75 Q 408.5 249.4 448.85 172.1 Q 469.1 133.35 488 102.5 Z" transform="translate(0.05,0) scale(0.724976,0.724976)" fill="#5C3C20"/>
		<path d="M 489.25 100.2 L 493.95 106.75 Q 488.15 103.75 478.2 100.95 Q 458.35 95.4 437.7 96.6 Q 408.85 98.25 382.65 113.2 Q 349.85 131.9 323.1 170.35 Q 301.55 201.35 275.55 249.35 Q 258.8 280.2 256.4 284.5 Q 245.9 303.3 237.3 316.25 Q 215.6 348.9 189.85 367.85 Q 159.5 390.2 114.75 400.85 Q 70.05 411.5 41.4 405 Q 16.6 399.4 6.3 381.7 Q -2.75 366.15 1.1 345.15 Q 4.7 325.55 17.6 309.75 Q 39.95 282.4 64.6 264.5 Q 84.1 250.35 101.2 244.55 L 63 279.65 Q 50.9 291.3 41.1 302.65 Q 9.65 339 12.5 358.6 Q 14.65 373.2 27.05 381.35 Q 38.55 388.95 57.85 390.35 Q 95.65 393 144.85 373.9 Q 190.35 356.25 223.35 317.05 Q 236.65 301.25 250.15 279.5 Q 258.65 265.75 273.3 239.25 Q 288.75 211.25 296.3 198.8 Q 309.75 176.65 322.7 160.7 Q 355.2 120.5 399.45 101.55 Q 413.35 95.55 429.55 93.85 Q 457.25 90.9 489.25 100.2 Z" transform="translate(0.05,0) scale(0.724976,0.724976)" fill="#5C3C20"/>
		<path d="M 349.7 114.4 Q 342.9 120.65 334.7 129.2 Q 318.3 146.3 311.2 157.85 L 233.35 135.2 L 230.05 117.7 L 255.35 102.35 L 262.4 103.5 L 264.9 102.6 Q 267.5 101.3 268.05 99.35 Q 268.6 97.4 268.8 95.6 L 268.95 94.2 L 286.55 86.8 L 347.95 101.7 Z" transform="translate(0.05,0) scale(0.724976,0.724976)" fill="url(#grad15)"/>
		<path d="M 268.8 95.6 L 268.95 94.2 L 269.45 94 L 323.45 105.6 Q 325.35 106.1 326.25 110.65 Q 327.25 115.85 323.9 119.1 Q 320.45 122.55 317.2 120.05 Q 314.1 117.65 315 114.5 L 262.7 103.4 Q 264.15 103.05 265.45 102.3 Q 267.55 101.05 268.05 99.35 Q 268.6 97.4 268.8 95.6 Z" transform="translate(0.05,0) scale(0.724976,0.724976)" fill="url(#grad16)"/>
		<path d="M 230.05 117.7 L 309.25 130.9 L 311.2 157.85 L 231.8 136.6 Z" transform="translate(0.05,0) scale(0.724976,0.724976)" fill="url(#grad17)"/>
		<path d="M 336.3 131.45 Q 335.35 134.85 333 136.85 Q 330.65 138.85 328.35 138.25 Q 326 137.65 325 134.8 Q 324 132 324.95 128.6 Q 325.95 125.2 328.25 123.2 Q 330.6 121.2 332.9 121.75 Q 335.25 122.35 336.25 125.2 Q 337.25 128.05 336.3 131.45 Z" transform="translate(0.05,0) scale(0.724976,0.724976)" fill="#000000"/>
		<path d="M 195.9 143.9 L 218.15 131.75 L 301.05 144.95 L 305 162.15 Q 296.85 171.5 287.15 184.2 Q 267.7 209.55 259.8 226.15 L 154.2 204.2 L 147.6 180.65 L 179.05 156.7 L 188.5 157.4 L 191.65 155.9 Q 194.95 153.8 195.4 151.05 Q 195.85 148.3 195.95 145.85 Z" transform="translate(0.05,0) scale(0.724976,0.724976)" fill="url(#grad18)"/>
		<path d="M 195.95 145.85 L 195.9 143.9 L 196.55 143.55 Q 207.75 145.05 269.25 153.2 Q 271.8 153.65 273.55 159.8 Q 275.55 166.75 271.55 171.6 Q 267.45 176.7 262.85 173.65 Q 261 172.4 259.95 170.3 Q 258.95 168.2 259.25 166.3 L 188.85 157.25 Q 190.75 156.55 192.35 155.4 Q 195 153.5 195.4 151.05 Q 195.85 148.3 195.95 145.85 Z" transform="translate(0.05,0) scale(0.724976,0.724976)" fill="url(#grad19)"/>
		<path d="M 152.35 206.3 L 147.6 180.65 L 253.7 189.45 L 259.8 226.15 Z" transform="translate(0.05,0) scale(0.724976,0.724976)" fill="url(#grad20)"/>
		<path d="M 277.8 176.65 Q 280.6 173.7 283.8 174.2 Q 286.95 174.75 288.6 178.5 Q 290.3 182.25 289.45 187.05 Q 288.65 191.8 285.85 194.8 Q 283.05 197.85 279.85 197.3 Q 276.7 196.8 275.05 193 Q 273.4 189.25 274.2 184.45 Q 275 179.65 277.8 176.65 Z" transform="translate(0.05,0) scale(0.724976,0.724976)" fill="#000000"/>
		<path d="M 116.5 237.5 Q 116.65 235.25 113.05 225.45 Q 109.65 216.3 110.2 215.6 Q 114.55 208.9 118.75 203.1 Q 127.1 191.65 130.2 191.7 Q 133.85 191.75 190.8 199.35 Q 247.5 206.9 248.85 207.45 Q 249.9 207.9 252.65 221.3 Q 254 228 255.15 234.6 Q 249.65 244.8 242.25 257.85 Q 227.5 283.9 217.95 298.05 Q 215.65 301.45 205.15 317.7 Q 197.35 329.75 192.55 336.35 Q 178.35 355.95 169 357.95 Q 158.75 360.1 117.65 350.55 Q 78.05 341.35 70.55 336.4 Q 64.05 332.15 55.95 314.25 Q 48.05 296.95 49.05 291.05 Q 49.85 286.4 64.85 269.2 L 79.7 252.9 Q 98.2 256.85 99.55 256.7 Q 101 256.55 108.45 248.7 Q 116.35 240.45 116.5 237.5 Z" transform="translate(0.05,0) scale(0.724976,0.724976)" fill="url(#grad21)"/>
		<path d="M 49.05 291.05 L 49.2 290.45 Q 80.9 293.6 105.65 296.75 Q 150.55 302.45 154.1 306.1 Q 158.05 310.05 162.55 330.5 Q 166.85 350 166.35 358.25 Q 152.75 358.95 114.4 349.8 Q 77.55 341.05 70.55 336.4 Q 64.05 332.15 55.95 314.25 Q 48.05 296.95 49.05 291.05 Z" transform="translate(0.05,0) scale(0.724976,0.724976)" fill="url(#grad22)"/>
		<path d="M 116.5 237.5 Q 116.65 235.25 113.05 225.45 Q 109.65 216.3 110.2 215.6 L 110.6 215.05 Q 141.75 219.15 169.3 223.1 Q 216.15 229.8 218.65 231.4 Q 222.35 233.85 226.5 241.15 Q 231.05 249.2 230.25 253.85 Q 229.25 259.8 223.7 268.8 Q 217.55 278.75 213.35 278.65 Q 209.7 278.55 205.6 273.25 Q 200.15 266.2 200.1 266.15 Q 198.45 264.9 156.35 261.3 Q 109.6 257.55 99.55 256.7 Q 103.35 253.85 109.35 247.5 Q 116.35 240.05 116.5 237.5 Z" transform="translate(0.05,0) scale(0.724976,0.724976)" fill="url(#grad23)"/>
		<path d="M 112.95 243.6 L 112.8 243.6 Q 91.55 241.8 90.8 242.55 Q 89.4 244.05 94 255.8 L 79.7 252.9 L 79.5 253.15 Q 76.9 247.4 75.45 242.4 Q 73 234 74.75 231 Q 75.65 229.5 87.25 229.3 Q 97.8 229.15 114.7 230.05 Q 141.5 231.55 165.35 234.45 Q 191.3 237.65 194 240.25 Q 197.2 243.35 199 252.8 Q 200.2 259.1 200.55 266.6 L 200.1 266.15 Q 199.2 265.45 187.75 264.25 Q 187.4 252.35 185.5 251.45 Q 184.2 250.8 158.85 248.05 Q 133.5 245.3 112.95 243.6 Z" transform="translate(0.05,0) scale(0.724976,0.724976)" fill="url(#grad24)"/>
		<path d="M 66.6 307.25 L 104.5 311.75 Q 142.6 316.8 143.85 319.45 Q 145.4 322.75 144.65 329.9 Q 143.9 337.1 141.7 338.05 Q 139.65 338.95 106.3 333.35 Q 73.55 327.85 70.5 326.55 Q 68.3 325.6 67.25 316.35 Z" transform="translate(0.05,0) scale(0.724976,0.724976)" fill="url(#grad25)"/>
		<path d="M 68.65 315.7 L 69.25 311 L 141.15 320.8 L 140.55 325.55 Z" transform="translate(0.05,0) scale(0.724976,0.724976)" fill="#000000"/>
		<path d="M 67.25 324.2 L 67.85 319.5 L 139.7 329.3 L 139.1 334 Z" transform="translate(0.05,0) scale(0.724976,0.724976)" fill="#000000"/>
		<path d="M 156.5 318.6 Q 161.25 322.1 162.15 327.55 Q 163.05 333.05 159.55 337.3 Q 156.05 341.55 150.2 342.05 Q 144.35 342.6 139.55 339.1 Q 134.8 335.65 133.9 330.15 Q 133 324.7 136.5 320.45 Q 140 316.2 145.85 315.65 Q 151.7 315.15 156.5 318.6 Z" transform="translate(0.05,0) scale(0.724976,0.724976)" fill="url(#grad26)"/>
		<path d="M 76.65 312 Q 77.6 317 74.65 320.95 Q 71.7 324.9 66.55 325.45 Q 61.4 326 57.15 322.9 Q 52.85 319.75 51.9 314.75 Q 50.95 309.75 53.95 305.8 Q 56.9 301.85 62 301.3 Q 67.15 300.75 71.45 303.9 Q 75.7 307 76.65 312 Z" transform="translate(0.05,0) scale(0.724976,0.724976)" fill="url(#grad27)"/>
		<path d="M 215.75 317.35 Q 216.25 325.4 212.6 331.15 Q 209 336.95 203.35 337 Q 197.75 337.1 193.4 331.4 Q 189.1 325.75 188.55 317.65 Q 188.05 309.6 191.7 303.85 Q 195.35 298.1 200.95 298 Q 206.6 297.95 210.9 303.6 Q 215.25 309.3 215.75 317.35 Z" transform="translate(0.05,0) scale(0.724976,0.724976)" fill="#000000"/>
	</g>
</svg>
