<?xml version="1.0"?>
<!DOCTYPE svg PUBLIC "-//W3C//DTD SVG 1.1//EN" "http://www.w3.org/Graphics/SVG/1.1/DTD/svg11.dtd">
<svg version='1.1' width='179px' height='130px' xmlns='http://www.w3.org/2000/svg' xmlns:xlink='http://www.w3.org/1999/xlink'>
	<defs>
		<radialGradient id="grad0" gradientUnits="userSpaceOnUse" cx="0.0" cy="0.0" r=".5" gradientTransform="matrix(-230.175 90.125 -79.25 -202.475 1028.55 31.2)">
		<stop offset="0%" stop-color="#C4C4C4"/>
		<stop offset="100%" stop-color="#738495"/>
		</radialGradient>
		<radialGradient id="grad1" gradientUnits="userSpaceOnUse" cx="0.0" cy="0.0" r=".5" gradientTransform="matrix(-88.4 34.6 -30.425 -77.75 1013.95 18.4)">
		<stop offset="0%" stop-color="#C4C4C4"/>
		<stop offset="100%" stop-color="#738495"/>
		</radialGradient>
		<radialGradient id="grad2" gradientUnits="userSpaceOnUse" cx="0.0" cy="0.0" r=".5" gradientTransform="matrix(-107.1 41.925 -36.875 -94.225 1050.25 -3.7)">
		<stop offset="0%" stop-color="#C4C4C4"/>
		<stop offset="100%" stop-color="#738495"/>
		</radialGradient>
		<radialGradient id="grad3" gradientUnits="userSpaceOnUse" cx="0.0" cy="0.0" r=".5" gradientTransform="matrix(-251.6 98.525 -86.625 -221.3 1093.9 66.8)">
		<stop offset="0%" stop-color="#C4C4C4"/>
		<stop offset="100%" stop-color="#738495"/>
		</radialGradient>
		<radialGradient id="grad4" gradientUnits="userSpaceOnUse" cx="0.0" cy="0.0" r=".5" gradientTransform="matrix(-88.4 34.6 -30.425 -77.75 1013.95 18.4)">
		<stop offset="0%" stop-color="#C4C4C4"/>
		<stop offset="100%" stop-color="#738495"/>
		</radialGradient>
		<radialGradient id="grad5" gradientUnits="userSpaceOnUse" cx="0.0" cy="0.0" r=".5" gradientTransform="matrix(-107.1 41.925 -36.875 -94.225 1050.25 -3.7)">
		<stop offset="0%" stop-color="#C4C4C4"/>
		<stop offset="100%" stop-color="#738495"/>
		</radialGradient>
		<radialGradient id="grad6" gradientUnits="userSpaceOnUse" cx="0.0" cy="0.0" r=".5" gradientTransform="matrix(-197.25 77.225 -67.925 -173.5 1138.05 124.85)">
		<stop offset="0%" stop-color="#C4C4C4"/>
		<stop offset="100%" stop-color="#738495"/>
		</radialGradient>
		<radialGradient id="grad7" gradientUnits="userSpaceOnUse" cx="0.0" cy="0.0" r=".5" gradientTransform="matrix(-206.8 80.975 -71.2 -181.9 1138.85 110.45)">
		<stop offset="0%" stop-color="#C4C4C4"/>
		<stop offset="100%" stop-color="#738495"/>
		</radialGradient>
		<radialGradient id="grad8" gradientUnits="userSpaceOnUse" cx="0.0" cy="0.0" r=".5" gradientTransform="matrix(-131.125 51.35 -45.15 -115.35 1090.3 85.8)">
		<stop offset="0%" stop-color="#C4C4C4"/>
		<stop offset="100%" stop-color="#738495"/>
		</radialGradient>
		<radialGradient id="grad9" gradientUnits="userSpaceOnUse" cx="0.0" cy="0.0" r=".5" gradientTransform="matrix(-200 78.325 -68.875 -175.95 1089.2 101.3)">
		<stop offset="0%" stop-color="#FEECA0"/>
		<stop offset="100%" stop-color="#FFD147"/>
		</radialGradient>
		<radialGradient id="grad10" gradientUnits="userSpaceOnUse" cx="0.0" cy="0.0" r=".5" gradientTransform="matrix(-147.825 57.875 -50.9 -130.05 1143.75 202.4)">
		<stop offset="0.392157%" stop-color="#A0A0A0"/>
		<stop offset="100%" stop-color="#000000"/>
		</radialGradient>
		<radialGradient id="grad11" gradientUnits="userSpaceOnUse" cx="0.0" cy="0.0" r=".5" gradientTransform="matrix(-23.25 7.725 -7.8 -15.925 1112.95 207.65)">
		<stop offset="0%" stop-color="#FEECA0"/>
		<stop offset="100%" stop-color="#FFD147"/>
		</radialGradient>
		<radialGradient id="grad12" gradientUnits="userSpaceOnUse" cx="0.0" cy="0.0" r=".5" gradientTransform="matrix(-20.4 6.9 -6.95 -14.65 1171.25 183.85)">
		<stop offset="0%" stop-color="#FEECA0"/>
		<stop offset="100%" stop-color="#FFD147"/>
		</radialGradient>
	</defs>
	<g transform="translate(89.2866,64.7088)">
		<path d="M 976.3 53.3 L 990.15 56 L 990.45 57 Q 990.85 58.25 991.55 59.55 Q 992.25 60.9 994.3 61.45 Q 995.35 61.7 996.25 61.7 L 1001.2 59.85 L 1021.85 67.15 L 1022.1 80.3 L 969.1 108.4 Q 962.25 101.1 947.8 91.2 L 934.7 82.75 L 934.05 73.3 Z" transform="translate(-766.45,-103.35) scale(0.724976,0.724976)" fill="url(#grad0)"/>
		<path d="M 996.05 61.7 L 959.85 77.6 Q 960.95 79.75 959.1 81.9 Q 957.1 84.2 954.1 82.3 Q 951.2 80.4 951.15 76.55 Q 951.1 73.1 952.4 72.45 L 989.75 55.9 L 990.15 56 L 990.45 57 Q 990.85 58.25 991.55 59.55 Q 992.55 61.45 996.05 61.7 Z" transform="translate(-766.45,-103.35) scale(0.724976,0.724976)" fill="url(#grad1)"/>
		<path d="M 1021.85 67.15 L 1023.4 81.05 L 969.1 108.4 L 966.5 88.6 Z" transform="translate(-766.45,-103.35) scale(0.724976,0.724976)" fill="url(#grad2)"/>
		<path d="M 947 93.05 Q 945.8 90.75 946.1 88.55 Q 946.4 86.35 948 85.55 Q 949.6 84.75 951.6 85.85 Q 953.55 86.95 954.75 89.3 Q 955.95 91.65 955.65 93.8 Q 955.35 96 953.75 96.8 Q 952.2 97.6 950.2 96.5 Q 948.2 95.4 947 93.05 Z" transform="translate(-766.45,-103.35) scale(0.724976,0.724976)" fill="#000000"/>
		<path d="M 1055.35 89 Q 1056.7 89.55 1057.85 89.65 L 1064.6 87.7 L 1090.95 100.3 L 1089.75 118.35 L 1016.6 150.15 Q 1008.4 139.3 990.5 123.85 L 974.25 110.6 L 974.5 97.55 L 1032.55 75.55 L 1050.5 81 L 1050.8 82.4 Q 1051.2 84.15 1051.95 86.1 Q 1052.7 88 1055.35 89 Z" transform="translate(-766.45,-103.35) scale(0.724976,0.724976)" fill="url(#grad3)"/>
		<path d="M 1057.6 89.6 L 1008 106.75 Q 1009.25 109.8 1006.5 112.55 Q 1003.65 115.45 999.9 112.4 Q 996.25 109.5 996.65 104.15 Q 997 99.45 998.8 98.7 Q 999.9 98.3 1022 90.55 Q 1043.5 83.05 1049.95 80.85 L 1050.5 81 L 1050.8 82.4 Q 1051.2 84.15 1051.95 86.1 Q 1052.6 87.75 1054.8 88.75 Q 1056.1 89.4 1057.6 89.6 Z" transform="translate(-766.45,-103.35) scale(0.724976,0.724976)" fill="url(#grad4)"/>
		<path d="M 1016.6 150.15 L 1015.5 122.65 L 1090.95 100.3 L 1091.4 119.6 Z" transform="translate(-766.45,-103.35) scale(0.724976,0.724976)" fill="url(#grad5)"/>
		<path d="M 989.25 126.3 Q 987.95 122.95 988.55 119.95 Q 989.2 117 991.4 116.1 Q 993.6 115.25 996.1 117 Q 998.6 118.75 999.9 122.1 Q 1001.2 125.45 1000.6 128.4 Q 999.95 131.4 997.75 132.25 Q 995.55 133.1 993.05 131.4 Q 990.55 129.65 989.25 126.3 Z" transform="translate(-766.45,-103.35) scale(0.724976,0.724976)" fill="#000000"/>
		<path d="M 1151 142.4 L 1164.2 151.95 Q 1177.6 162.15 1178.9 165.4 Q 1180.5 169.5 1177.4 183.25 Q 1174.2 197.4 1170.2 201.45 Q 1165.45 206.2 1138.2 218.8 Q 1109.85 231.9 1102.15 231.85 Q 1095.05 231.8 1081.85 219.8 Q 1065.8 203.8 1057.7 195.9 Q 1048.65 187.05 1034.05 170.4 L 1021.2 155.55 Q 1021.05 150.6 1021.05 145.55 Q 1021 135.4 1021.7 134.95 Q 1022.6 134.35 1062.55 120.35 Q 1102.6 106.3 1105.2 105.7 Q 1107.45 105.25 1115.25 112.25 Q 1119.15 115.8 1123.3 120 Q 1123.8 120.4 1122.75 127.55 Q 1121.55 135.2 1122 136.8 Q 1122.6 138.85 1129.55 143.7 Q 1136.15 148.25 1137.15 148.15 Q 1137.8 148.1 1144.45 145.25 Q 1147.8 143.8 1151 142.4 Z" transform="translate(-766.45,-103.35) scale(0.724976,0.724976)" fill="url(#grad6)"/>
		<path d="M 1177.4 183.25 Q 1174.2 197.4 1170.2 201.45 Q 1165.8 205.85 1140.4 217.8 Q 1114.05 230.15 1104.1 231.7 Q 1102.5 225.8 1102.65 211.05 Q 1102.85 195.55 1105.1 192.1 Q 1107.15 188.95 1138.85 178.05 Q 1155.65 172.25 1178.7 165 L 1178.9 165.4 Q 1180.5 169.5 1177.4 183.25 Z" transform="translate(-766.45,-103.35) scale(0.724976,0.724976)" fill="url(#grad7)"/>
		<path d="M 1042.95 156 Q 1044.85 150.1 1047.15 147.75 Q 1049.5 145.4 1122.95 119.65 L 1123.3 120 Q 1123.8 120.4 1122.75 127.55 Q 1121.55 135.2 1122 136.8 Q 1122.55 138.65 1128.7 142.95 Q 1133.95 146.65 1137.15 148.15 Q 1112.6 155.3 1096.75 160 Q 1066.8 168.95 1065.8 170.1 Q 1064.1 173.7 1062.95 176.05 Q 1060.75 180.5 1058.1 181.15 Q 1055.1 181.85 1049.15 175.55 Q 1043.8 169.85 1042.15 165.7 Q 1040.85 162.45 1042.95 156 Z" transform="translate(-766.45,-103.35) scale(0.724976,0.724976)" fill="url(#grad8)"/>
		<path d="M 1141.4 136.6 Q 1140.8 136.2 1125.6 140.65 L 1125.55 140.7 Q 1111.2 144.95 1092.95 150.8 Q 1075.05 156.6 1074.2 157.25 Q 1072.9 158.25 1074.5 166.85 Q 1066.35 169.55 1065.8 170.1 L 1065.55 170.5 Q 1063.25 155.05 1066.35 150.45 Q 1067.9 148.15 1086.2 141.95 Q 1103.1 136.25 1122.2 131.15 Q 1134.4 127.9 1142 126.45 Q 1150.4 124.85 1151.25 125.85 Q 1153 127.75 1152.5 134.2 Q 1152.2 138.05 1151.2 142.55 L 1151 142.4 Q 1145.2 144.95 1141.1 146.65 Q 1142.55 137.4 1141.4 136.6 Z" transform="translate(-766.45,-103.35) scale(0.724976,0.724976)" fill="url(#grad9)"/>
		<path d="M 1168.65 179.75 L 1169.55 186.45 Q 1170.2 193.35 1168.75 194.35 Q 1166.7 195.75 1143.85 204.65 Q 1120.5 213.7 1118.9 213.35 Q 1117.2 213 1115.55 207.9 Q 1113.95 202.85 1114.55 200.25 Q 1115.1 198.15 1141.9 188.75 Q 1155.35 184.05 1168.65 179.75 Z" transform="translate(-766.45,-103.35) scale(0.724976,0.724976)" fill="url(#grad10)"/>
		<path d="M 1168.4 186.2 L 1117.85 204.1 L 1116.75 200.8 L 1167.25 182.9 Z" transform="translate(-766.45,-103.35) scale(0.724976,0.724976)" fill="#000000"/>
		<path d="M 1170.75 192.15 L 1120.2 210.05 L 1119.05 206.7 L 1169.6 188.8 Z" transform="translate(-766.45,-103.35) scale(0.724976,0.724976)" fill="#000000"/>
		<path d="M 1102.55 208.85 Q 1102.35 204.75 1105.3 201.5 Q 1108.2 198.3 1112.5 197.75 Q 1116.85 197.25 1120.05 199.8 Q 1123.2 202.35 1123.35 206.45 Q 1123.55 210.55 1120.65 213.8 Q 1117.7 217.05 1113.4 217.55 Q 1109.05 218.05 1105.9 215.5 Q 1102.7 212.95 1102.55 208.85 Z" transform="translate(-766.45,-103.35) scale(0.724976,0.724976)" fill="url(#grad11)"/>
		<path d="M 1162.1 184.7 Q 1162.05 180.95 1164.65 178.05 Q 1167.25 175.15 1171.05 174.8 Q 1174.85 174.45 1177.6 176.8 Q 1180.35 179.2 1180.4 183 Q 1180.5 186.75 1177.85 189.65 Q 1175.2 192.6 1171.4 192.95 Q 1167.6 193.3 1164.9 190.9 Q 1162.15 188.5 1162.1 184.7 Z" transform="translate(-766.45,-103.35) scale(0.724976,0.724976)" fill="url(#grad12)"/>
		<path d="M 1070 193.3 Q 1074.1 192.5 1077.6 196.1 Q 1081.1 199.75 1081.9 205.65 Q 1082.75 211.55 1080.5 216.3 Q 1078.2 221.05 1074.1 221.85 Q 1070 222.7 1066.55 219.05 Q 1063.05 215.45 1062.2 209.5 Q 1061.35 203.6 1063.65 198.85 Q 1065.9 194.1 1070 193.3 Z" transform="translate(-766.45,-103.35) scale(0.724976,0.724976)" fill="#000000"/>
	</g>
</svg>
