<?xml version="1.0"?>
<!DOCTYPE svg PUBLIC "-//W3C//DTD SVG 1.1//EN" "http://www.w3.org/Graphics/SVG/1.1/DTD/svg11.dtd">
<svg version='1.1' width='359px' height='333px' xmlns='http://www.w3.org/2000/svg' xmlns:xlink='http://www.w3.org/1999/xlink'>
	<defs>
		<radialGradient id="grad0" gradientUnits="userSpaceOnUse" cx="0.0" cy="0.0" r=".5" gradientTransform="matrix(1143.1 194.275 170.8 -1005.5 115.35 281.85)">
		<stop offset="0%" stop-color="#FFFFFF"/>
		<stop offset="41.9608%" stop-color="#FFE691"/>
		<stop offset="100%" stop-color="#9D846F"/>
		</radialGradient>
		<radialGradient id="grad1" gradientUnits="userSpaceOnUse" cx="0.0" cy="0.0" r=".5" gradientTransform="matrix(329.6 56.025 49.25 -289.95 211.25 71.9)">
		<stop offset="0%" stop-color="#C4C4C4"/>
		<stop offset="100%" stop-color="#738495"/>
		</radialGradient>
		<radialGradient id="grad2" gradientUnits="userSpaceOnUse" cx="0.0" cy="0.0" r=".5" gradientTransform="matrix(126.6 21.525 18.925 -111.35 227.1 50.95)">
		<stop offset="0%" stop-color="#C4C4C4"/>
		<stop offset="100%" stop-color="#738495"/>
		</radialGradient>
		<radialGradient id="grad3" gradientUnits="userSpaceOnUse" cx="0.0" cy="0.0" r=".5" gradientTransform="matrix(153.375 26.075 22.925 -134.925 172.9 31.7)">
		<stop offset="0%" stop-color="#C4C4C4"/>
		<stop offset="100%" stop-color="#738495"/>
		</radialGradient>
		<radialGradient id="grad4" gradientUnits="userSpaceOnUse" cx="0.0" cy="0.0" r=".5" gradientTransform="matrix(360.3 61.25 53.85 -316.95 134.5 137.1)">
		<stop offset="0%" stop-color="#C4C4C4"/>
		<stop offset="100%" stop-color="#738495"/>
		</radialGradient>
		<radialGradient id="grad5" gradientUnits="userSpaceOnUse" cx="0.0" cy="0.0" r=".5" gradientTransform="matrix(126.6 21.525 18.925 -111.35 227.1 50.95)">
		<stop offset="0%" stop-color="#C4C4C4"/>
		<stop offset="100%" stop-color="#738495"/>
		</radialGradient>
		<radialGradient id="grad6" gradientUnits="userSpaceOnUse" cx="0.0" cy="0.0" r=".5" gradientTransform="matrix(153.375 26.075 22.925 -134.925 172.9 31.7)">
		<stop offset="0%" stop-color="#C4C4C4"/>
		<stop offset="100%" stop-color="#738495"/>
		</radialGradient>
		<radialGradient id="grad7" gradientUnits="userSpaceOnUse" cx="0.0" cy="0.0" r=".5" gradientTransform="matrix(282.475 48 42.225 -248.475 92 226.15)">
		<stop offset="0%" stop-color="#C4C4C4"/>
		<stop offset="100%" stop-color="#738495"/>
		</radialGradient>
		<radialGradient id="grad8" gradientUnits="userSpaceOnUse" cx="0.0" cy="0.0" r=".5" gradientTransform="matrix(296.2 50.35 44.275 -260.55 87 207.25)">
		<stop offset="0%" stop-color="#C4C4C4"/>
		<stop offset="100%" stop-color="#738495"/>
		</radialGradient>
		<radialGradient id="grad9" gradientUnits="userSpaceOnUse" cx="0.0" cy="0.0" r=".5" gradientTransform="matrix(187.8 31.925 28.075 -165.175 144.5 161.25)">
		<stop offset="0%" stop-color="#C4C4C4"/>
		<stop offset="100%" stop-color="#738495"/>
		</radialGradient>
		<radialGradient id="grad10" gradientUnits="userSpaceOnUse" cx="0.0" cy="0.0" r=".5" gradientTransform="matrix(286.45 48.675 42.8 -251.975 150.2 181.5)">
		<stop offset="0%" stop-color="#FEECA0"/>
		<stop offset="100%" stop-color="#FFD147"/>
		</radialGradient>
		<radialGradient id="grad11" gradientUnits="userSpaceOnUse" cx="0.0" cy="0.0" r=".5" gradientTransform="matrix(211.7 35.975 31.625 -186.2 105.75 330.35)">
		<stop offset="0.392157%" stop-color="#A0A0A0"/>
		<stop offset="100%" stop-color="#000000"/>
		</radialGradient>
		<radialGradient id="grad12" gradientUnits="userSpaceOnUse" cx="0.0" cy="0.0" r=".5" gradientTransform="matrix(32.95 3.85 5.95 -23.25 148 328.85)">
		<stop offset="0%" stop-color="#FEECA0"/>
		<stop offset="100%" stop-color="#FFD147"/>
		</radialGradient>
		<radialGradient id="grad13" gradientUnits="userSpaceOnUse" cx="0.0" cy="0.0" r=".5" gradientTransform="matrix(28.9 3.55 5.175 -21.3 64.3 313.35)">
		<stop offset="0%" stop-color="#FEECA0"/>
		<stop offset="100%" stop-color="#FFD147"/>
		</radialGradient>
	</defs>
	<g transform="translate(179.036,166.071)">
		<path d="M 489.25 100.2 L 487.45 103.2 Q 463.55 92 433.8 95.75 Q 386.45 101.7 338.4 145.9 Q 309.3 172.65 284.9 214.25 Q 270.8 238.25 247.05 285.7 Q 225.25 326.45 204.1 348.25 Q 175.8 377.5 135.3 389.9 Q 111.65 397.15 89.4 399.95 Q 65.35 402.95 47.3 400.1 Q 39.3 396.95 30.65 393.8 Q 28 392.6 24.25 390.25 Q 16.8 385.5 11.4 379.55 Q 5 368.05 7.9 351.05 Q 11 332.65 24.9 308.2 Q 31.65 301.55 39.7 295.05 Q 100.4 246.3 114.3 235.35 Q 164.5 195.9 204 167.95 Q 314.85 89.6 366.5 83.85 Q 416.45 78.3 457.85 88.7 Q 478.55 93.9 489.25 100.2 Z" transform="translate(-179,-225.15) scale(0.724976,0.724976)" fill="url(#grad0)"/>
		<path d="M 423.6 81.95 L 464.75 95.95 L 456.45 95.35 L 419.95 82.1 Z" transform="translate(-179,-225.15) scale(0.724976,0.724976)" fill="#5C3C20"/>
		<path d="M 435.75 94.65 L 401 82.1 L 404.5 81.9 L 443.7 95.25 Z" transform="translate(-179,-225.15) scale(0.724976,0.724976)" fill="#5C3C20"/>
		<path d="M 415.5 96.2 L 381.9 84.4 L 385.3 84.25 L 423.15 96.8 Z" transform="translate(-179,-225.15) scale(0.724976,0.724976)" fill="#5C3C20"/>
		<path d="M 360.2 87.6 L 401.7 102.75 L 396.55 104.4 L 356.5 87.9 Z" transform="translate(-179,-225.15) scale(0.724976,0.724976)" fill="#5C3C20"/>
		<path d="M 336.7 94.05 L 382.6 111.9 L 376.8 114.1 L 332.55 94.5 Z" transform="translate(-179,-225.15) scale(0.724976,0.724976)" fill="#5C3C20"/>
		<path d="M 357.45 127.85 L 312.8 107.4 L 317 106.95 L 362.85 124.8 Z" transform="translate(-179,-225.15) scale(0.724976,0.724976)" fill="#5C3C20"/>
		<path d="M 338.4 145.9 L 293.8 125.4 L 297.95 124.95 L 343.8 142.8 Z" transform="translate(-179,-225.15) scale(0.724976,0.724976)" fill="#5C3C20"/>
		<path d="M 277.9 147.65 L 323.8 165.45 L 318.4 168.55 L 273.75 148.05 Z" transform="translate(-179,-225.15) scale(0.724976,0.724976)" fill="#5C3C20"/>
		<path d="M 280.05 230.4 L 235.4 209.95 L 239.6 209.5 L 285.45 227.35 Z" transform="translate(-179,-225.15) scale(0.724976,0.724976)" fill="#5C3C20"/>
		<path d="M 254.1 275.75 L 209.5 255.25 L 213.65 254.8 L 259.5 272.65 Z" transform="translate(-179,-225.15) scale(0.724976,0.724976)" fill="#5C3C20"/>
		<path d="M 190.2 290.95 L 236.05 308.8 L 230.65 311.85 L 186 291.4 Z" transform="translate(-179,-225.15) scale(0.724976,0.724976)" fill="#5C3C20"/>
		<path d="M 160.1 323.15 L 205.95 340.95 L 200.55 344.05 L 155.9 323.55 Z" transform="translate(-179,-225.15) scale(0.724976,0.724976)" fill="#5C3C20"/>
		<path d="M 129.35 345.6 L 175.25 363.45 L 169.85 366.5 L 125.2 346.05 Z" transform="translate(-179,-225.15) scale(0.724976,0.724976)" fill="#5C3C20"/>
		<path d="M 255.85 181 L 301.7 198.8 L 296.3 201.9 L 251.65 181.4 Z" transform="translate(-179,-225.15) scale(0.724976,0.724976)" fill="#5C3C20"/>
		<path d="M 421 84.55 Q 394.75 83.9 368.8 87.6 Q 285.75 99.35 237 149.7 L 229.3 150.8 Q 293.5 94.75 372.65 83.85 Q 397.4 80.45 420.65 81.95 Q 432.25 82.7 438.95 84.15 L 442.1 85.9 Q 434.15 84.85 421 84.55 Z" transform="translate(-179,-225.15) scale(0.724976,0.724976)" fill="#5C3C20"/>
		<path d="M 63.75 276.6 Q 70.35 269.4 74.9 265.2 L 78.85 268.55 Q 78.7 268.7 68.9 278.85 Q 57.4 291.4 48.5 303.95 Q 20.1 343.95 27.75 369.4 Q 33.95 389.85 64.35 399.55 L 62.7 404 Q 29.5 393.45 22.55 370.4 Q 14.4 343.3 42.85 302.55 Q 51.9 289.55 63.75 276.6 Z" transform="translate(-179,-225.15) scale(0.724976,0.724976)" fill="#5C3C20"/>
		<path d="M 56.45 329.85 Q 60.5 321.85 66.25 313.95 Q 69.25 309.85 71.75 306.95 L 76.05 310 Q 76 310.1 71.3 316.1 Q 65.85 323.55 61.95 331.1 Q 49.5 355.05 56.65 370.8 Q 64.8 388.75 98.95 394.55 L 98.15 399.25 Q 61 392.9 51.65 372.4 Q 43.75 355 56.45 329.85 Z" transform="translate(-179,-225.15) scale(0.724976,0.724976)" fill="#5C3C20"/>
		<path d="M 74.7 334.55 Q 74.45 328.9 75.35 323.25 Q 75.75 320.5 76.35 318.3 L 81.55 319.65 Q 81.55 319.7 80.7 323.85 Q 79.95 329 80.15 334.2 Q 80.75 350.65 90.9 361.35 Q 109.65 381.15 158.45 378.3 L 159.8 378.2 L 160.75 379.15 Q 160.9 379.3 172.15 391.3 Q 185.85 406.45 198.7 422.65 Q 239.55 474.35 256.9 517.75 L 251.8 519.15 Q 235.6 478.5 198.15 430.15 Q 177.65 403.7 157.65 383.1 Q 107.15 385.8 86.85 364.3 Q 75.5 352.3 74.7 334.55 Z" transform="translate(-179,-225.15) scale(0.724976,0.724976)" fill="#5C3C20"/>
		<path d="M 30.65 393.8 Q 30.8 393.85 36.55 395 Q 43.75 396.7 51.85 399.15 Q 77.45 407 102.1 419.95 Q 180.55 461.2 220.5 537.85 L 215.65 539.65 Q 176.5 464.55 99.8 424.1 Q 75.7 411.4 50.65 403.75 Q 42.7 401.3 35.65 399.7 Q 31.2 398.65 29.9 398.5 Z" transform="translate(-179,-225.15) scale(0.724976,0.724976)" fill="#5C3C20"/>
		<path d="M 453.35 157.5 Q 460.65 158.9 465.05 160.9 L 462.7 165.1 Q 458.55 163.25 451.7 162 Q 437.95 159.45 423.1 161.9 Q 375.75 169.7 334.25 223.8 Q 322.55 239.05 308.65 260.05 Q 300 273.1 284.25 298.1 Q 260.45 335.75 248.4 352.9 Q 228.35 381.45 210.95 398.8 Q 190.2 419.5 169.35 428.4 Q 146.05 438.35 120.95 434.4 L 121.65 429.7 Q 145.45 433.45 167.8 423.6 Q 187.75 414.8 207.95 394.45 Q 224.8 377.4 244.4 349.4 Q 256.2 332.55 279.5 295.65 Q 295.45 270.4 304.05 257.45 Q 318 236.4 329.8 221 Q 373 164.65 423.1 157.05 Q 438.8 154.65 453.35 157.5 Z" transform="translate(-179,-225.15) scale(0.724976,0.724976)" fill="#5C3C20"/>
		<path d="M 375.25 283.25 Q 390.8 274.9 402 275.25 L 401.95 280 Q 392.15 279.85 377.4 287.95 Q 347.9 304.1 321.9 345.45 L 320.55 347.6 Q 298.7 382.3 287.45 398.55 Q 268.65 425.75 252.7 442.55 Q 212.55 484.85 173.65 478.25 L 174.45 473.55 Q 210.85 479.75 249.65 438.25 Q 265.1 421.7 283.45 395.1 Q 294.4 379.15 315.8 345.15 L 317.15 343 Q 344.4 299.7 375.25 283.25 Z" transform="translate(-179,-225.15) scale(0.724976,0.724976)" fill="#5C3C20"/>
		<path d="M 376.4 352.4 L 379.75 356.25 Q 371.15 362.2 360.55 374.45 Q 339.3 398.9 327.95 431.45 Q 320.75 451.95 305.8 468.95 Q 291.9 484.75 273.1 495.6 Q 255.05 506 235.65 510.2 Q 216.3 514.35 199.45 511.5 L 200.25 506.85 Q 216.3 509.55 234.75 505.55 Q 253.25 501.5 270.4 491.45 Q 288.4 481 301.65 465.85 Q 315.95 449.5 322.8 429.85 Q 334.5 396.3 356.05 371.45 Q 366.95 358.9 376.4 352.4 Z" transform="translate(-179,-225.15) scale(0.724976,0.724976)" fill="#5C3C20"/>
		<path d="M 205 353.1 Q 211.55 360.8 219.6 371.3 Q 235.4 392 248.6 412.85 Q 290 478.35 291.8 523.15 L 286.45 523.15 Q 284.65 479.4 242.85 413.65 Q 229.7 393 214.1 372.6 Q 200.95 356.1 200.75 355.85 Z" transform="translate(-179,-225.15) scale(0.724976,0.724976)" fill="#5C3C20"/>
		<path d="M 245.2 298.7 Q 245.4 299 256.65 321.05 Q 269.95 348.35 280.65 375.8 Q 314.7 463.1 310.3 519.35 L 304.9 518.8 Q 309.3 463.4 276.2 379.6 Q 265.85 353.3 252.9 327.25 Q 241.95 306.25 241.75 305.95 Z" transform="translate(-179,-225.15) scale(0.724976,0.724976)" fill="#5C3C20"/>
		<path d="M 313.6 179.35 L 318.75 178.25 Q 332.65 224.15 343.45 287.05 Q 365 412.6 351.25 503.6 L 345.95 502.75 Q 359.6 412.35 338.2 287.55 Q 327.45 224.95 313.6 179.35 Z" transform="translate(-179,-225.15) scale(0.724976,0.724976)" fill="#5C3C20"/>
		<path d="M 365.85 120.3 L 371.2 120.35 Q 373.4 195.65 372.6 279.45 Q 370.95 446.65 356.2 498.7 L 350.95 497.35 Q 365.65 445.7 367.25 278.95 Q 368.05 195.4 365.85 120.3 Z" transform="translate(-179,-225.15) scale(0.724976,0.724976)" fill="#5C3C20"/>
		<path d="M 432.95 95.8 L 437.95 97.8 Q 428.65 117.7 417.65 152.65 Q 395.7 222.3 385.85 300.05 Q 376.05 377.65 368.35 443.15 Q 364.5 475.85 362.55 493.4 L 357.2 492.75 Q 359.15 475.2 363 442.5 Q 370.7 376.95 380.5 299.3 Q 390.4 221.15 412.5 151 Q 423.6 115.85 432.95 95.8 Z" transform="translate(-179,-225.15) scale(0.724976,0.724976)" fill="#5C3C20"/>
		<path d="M 488 102.5 L 492.75 104.9 Q 473.95 135.6 453.85 174.1 Q 413.7 250.9 404.7 293.8 Q 395.65 337.1 380.4 418.8 Q 372.75 459.8 366.75 493.05 L 361.4 492.1 Q 367.45 458.85 375.1 417.8 Q 390.4 335.8 399.4 292.75 Q 408.5 249.4 448.85 172.1 Q 469.1 133.35 488 102.5 Z" transform="translate(-179,-225.15) scale(0.724976,0.724976)" fill="#5C3C20"/>
		<path d="M 489.25 100.2 L 493.95 106.75 Q 488.15 103.75 478.2 100.95 Q 458.35 95.4 437.7 96.6 Q 408.85 98.25 382.65 113.2 Q 349.85 131.9 323.1 170.35 Q 301.55 201.35 275.55 249.35 Q 258.8 280.2 256.4 284.5 Q 245.9 303.3 237.3 316.25 Q 215.6 348.9 189.85 367.85 Q 159.5 390.2 114.75 400.85 Q 70.05 411.5 41.4 405 Q 16.6 399.4 6.3 381.7 Q -2.75 366.15 1.1 345.15 Q 4.7 325.55 17.6 309.75 Q 39.95 282.4 64.6 264.5 Q 84.1 250.35 101.2 244.55 L 63 279.65 Q 50.9 291.3 41.1 302.65 Q 9.65 339 12.5 358.6 Q 14.65 373.2 27.05 381.35 Q 38.55 388.95 57.85 390.35 Q 95.65 393 144.85 373.9 Q 190.35 356.25 223.35 317.05 Q 236.65 301.25 250.15 279.5 Q 258.65 265.75 273.3 239.25 Q 288.75 211.25 296.3 198.8 Q 309.75 176.65 322.7 160.7 Q 355.2 120.5 399.45 101.55 Q 413.35 95.55 429.55 93.85 Q 457.25 90.9 489.25 100.2 Z" transform="translate(-179,-225.15) scale(0.724976,0.724976)" fill="#5C3C20"/>
		<path d="M 349.7 114.4 Q 342.9 120.65 334.7 129.2 Q 318.3 146.3 311.2 157.85 L 233.35 135.2 L 230.05 117.7 L 255.35 102.35 L 262.4 103.5 L 264.9 102.6 Q 267.5 101.3 268.05 99.35 Q 268.6 97.4 268.8 95.6 L 268.95 94.2 L 286.55 86.8 L 347.95 101.7 Z" transform="translate(-179,-225.15) scale(0.724976,0.724976)" fill="url(#grad1)"/>
		<path d="M 268.8 95.6 L 268.95 94.2 L 269.45 94 L 323.45 105.6 Q 325.35 106.1 326.25 110.65 Q 327.25 115.85 323.9 119.1 Q 320.45 122.55 317.2 120.05 Q 314.1 117.65 315 114.5 L 262.7 103.4 Q 264.15 103.05 265.45 102.3 Q 267.55 101.05 268.05 99.35 Q 268.6 97.4 268.8 95.6 Z" transform="translate(-179,-225.15) scale(0.724976,0.724976)" fill="url(#grad2)"/>
		<path d="M 230.05 117.7 L 309.25 130.9 L 311.2 157.85 L 231.8 136.6 Z" transform="translate(-179,-225.15) scale(0.724976,0.724976)" fill="url(#grad3)"/>
		<path d="M 336.3 131.45 Q 335.35 134.85 333 136.85 Q 330.65 138.85 328.35 138.25 Q 326 137.65 325 134.8 Q 324 132 324.95 128.6 Q 325.95 125.2 328.25 123.2 Q 330.6 121.2 332.9 121.75 Q 335.25 122.35 336.25 125.2 Q 337.25 128.05 336.3 131.45 Z" transform="translate(-179,-225.15) scale(0.724976,0.724976)" fill="#000000"/>
		<path d="M 195.9 143.9 L 218.15 131.75 L 301.05 144.95 L 305 162.15 Q 296.85 171.5 287.15 184.2 Q 267.7 209.55 259.8 226.15 L 154.2 204.2 L 147.6 180.65 L 179.05 156.7 L 188.5 157.4 L 191.65 155.9 Q 194.95 153.8 195.4 151.05 Q 195.85 148.3 195.95 145.85 Z" transform="translate(-179,-225.15) scale(0.724976,0.724976)" fill="url(#grad4)"/>
		<path d="M 195.95 145.85 L 195.9 143.9 L 196.55 143.55 Q 207.75 145.05 269.25 153.2 Q 271.8 153.65 273.55 159.8 Q 275.55 166.75 271.55 171.6 Q 267.45 176.7 262.85 173.65 Q 261 172.4 259.95 170.3 Q 258.95 168.2 259.25 166.3 L 188.85 157.25 Q 190.75 156.55 192.35 155.4 Q 195 153.5 195.4 151.05 Q 195.85 148.3 195.95 145.85 Z" transform="translate(-179,-225.15) scale(0.724976,0.724976)" fill="url(#grad5)"/>
		<path d="M 152.35 206.3 L 147.6 180.65 L 253.7 189.45 L 259.8 226.15 Z" transform="translate(-179,-225.15) scale(0.724976,0.724976)" fill="url(#grad6)"/>
		<path d="M 277.8 176.65 Q 280.6 173.7 283.8 174.2 Q 286.95 174.75 288.6 178.5 Q 290.3 182.25 289.45 187.05 Q 288.65 191.8 285.85 194.8 Q 283.05 197.85 279.85 197.3 Q 276.7 196.8 275.05 193 Q 273.4 189.25 274.2 184.45 Q 275 179.65 277.8 176.65 Z" transform="translate(-179,-225.15) scale(0.724976,0.724976)" fill="#000000"/>
		<path d="M 116.5 237.5 Q 116.65 235.25 113.05 225.45 Q 109.65 216.3 110.2 215.6 Q 114.55 208.9 118.75 203.1 Q 127.1 191.65 130.2 191.7 Q 133.85 191.75 190.8 199.35 Q 247.5 206.9 248.85 207.45 Q 249.9 207.9 252.65 221.3 Q 254 228 255.15 234.6 Q 249.65 244.8 242.25 257.85 Q 227.5 283.9 217.95 298.05 Q 215.65 301.45 205.15 317.7 Q 197.35 329.75 192.55 336.35 Q 178.35 355.95 169 357.95 Q 158.75 360.1 117.65 350.55 Q 78.05 341.35 70.55 336.4 Q 64.05 332.15 55.95 314.25 Q 48.05 296.95 49.05 291.05 Q 49.85 286.4 64.85 269.2 L 79.7 252.9 Q 98.2 256.85 99.55 256.7 Q 101 256.55 108.45 248.7 Q 116.35 240.45 116.5 237.5 Z" transform="translate(-179,-225.15) scale(0.724976,0.724976)" fill="url(#grad7)"/>
		<path d="M 49.05 291.05 L 49.2 290.45 Q 80.9 293.6 105.65 296.75 Q 150.55 302.45 154.1 306.1 Q 158.05 310.05 162.55 330.5 Q 166.85 350 166.35 358.25 Q 152.75 358.95 114.4 349.8 Q 77.55 341.05 70.55 336.4 Q 64.05 332.15 55.95 314.25 Q 48.05 296.95 49.05 291.05 Z" transform="translate(-179,-225.15) scale(0.724976,0.724976)" fill="url(#grad8)"/>
		<path d="M 116.5 237.5 Q 116.65 235.25 113.05 225.45 Q 109.65 216.3 110.2 215.6 L 110.6 215.05 Q 141.75 219.15 169.3 223.1 Q 216.15 229.8 218.65 231.4 Q 222.35 233.85 226.5 241.15 Q 231.05 249.2 230.25 253.85 Q 229.25 259.8 223.7 268.8 Q 217.55 278.75 213.35 278.65 Q 209.7 278.55 205.6 273.25 Q 200.15 266.2 200.1 266.15 Q 198.45 264.9 156.35 261.3 Q 109.6 257.55 99.55 256.7 Q 103.35 253.85 109.35 247.5 Q 116.35 240.05 116.5 237.5 Z" transform="translate(-179,-225.15) scale(0.724976,0.724976)" fill="url(#grad9)"/>
		<path d="M 112.95 243.6 L 112.8 243.6 Q 91.55 241.8 90.8 242.55 Q 89.4 244.05 94 255.8 L 79.7 252.9 L 79.5 253.15 Q 76.9 247.4 75.45 242.4 Q 73 234 74.75 231 Q 75.65 229.5 87.25 229.3 Q 97.8 229.15 114.7 230.05 Q 141.5 231.55 165.35 234.45 Q 191.3 237.65 194 240.25 Q 197.2 243.35 199 252.8 Q 200.2 259.1 200.55 266.6 L 200.1 266.15 Q 199.2 265.45 187.75 264.25 Q 187.4 252.35 185.5 251.45 Q 184.2 250.8 158.85 248.05 Q 133.5 245.3 112.95 243.6 Z" transform="translate(-179,-225.15) scale(0.724976,0.724976)" fill="url(#grad10)"/>
		<path d="M 66.6 307.25 L 104.5 311.75 Q 142.6 316.8 143.85 319.45 Q 145.4 322.75 144.65 329.9 Q 143.9 337.1 141.7 338.05 Q 139.65 338.95 106.3 333.35 Q 73.55 327.85 70.5 326.55 Q 68.3 325.6 67.25 316.35 Z" transform="translate(-179,-225.15) scale(0.724976,0.724976)" fill="url(#grad11)"/>
		<path d="M 68.65 315.7 L 69.25 311 L 141.15 320.8 L 140.55 325.55 Z" transform="translate(-179,-225.15) scale(0.724976,0.724976)" fill="#000000"/>
		<path d="M 67.25 324.2 L 67.85 319.5 L 139.7 329.3 L 139.1 334 Z" transform="translate(-179,-225.15) scale(0.724976,0.724976)" fill="#000000"/>
		<path d="M 156.5 318.6 Q 161.25 322.1 162.15 327.55 Q 163.05 333.05 159.55 337.3 Q 156.05 341.55 150.2 342.05 Q 144.35 342.6 139.55 339.1 Q 134.8 335.65 133.9 330.15 Q 133 324.7 136.5 320.45 Q 140 316.2 145.85 315.65 Q 151.7 315.15 156.5 318.6 Z" transform="translate(-179,-225.15) scale(0.724976,0.724976)" fill="url(#grad12)"/>
		<path d="M 76.65 312 Q 77.6 317 74.65 320.95 Q 71.7 324.9 66.55 325.45 Q 61.4 326 57.15 322.9 Q 52.85 319.75 51.9 314.75 Q 50.95 309.75 53.95 305.8 Q 56.9 301.85 62 301.3 Q 67.15 300.75 71.45 303.9 Q 75.7 307 76.65 312 Z" transform="translate(-179,-225.15) scale(0.724976,0.724976)" fill="url(#grad13)"/>
		<path d="M 215.75 317.35 Q 216.25 325.4 212.6 331.15 Q 209 336.95 203.35 337 Q 197.75 337.1 193.4 331.4 Q 189.1 325.75 188.55 317.65 Q 188.05 309.6 191.7 303.85 Q 195.35 298.1 200.95 298 Q 206.6 297.95 210.9 303.6 Q 215.25 309.3 215.75 317.35 Z" transform="translate(-179,-225.15) scale(0.724976,0.724976)" fill="#000000"/>
	</g>
</svg>
