<?xml version="1.0"?>
<!DOCTYPE svg PUBLIC "-//W3C//DTD SVG 1.1//EN" "http://www.w3.org/Graphics/SVG/1.1/DTD/svg11.dtd">
<svg version='1.1' width='359px' height='353px' xmlns='http://www.w3.org/2000/svg' xmlns:xlink='http://www.w3.org/1999/xlink'>
	<defs>
		<radialGradient id="grad0" gradientUnits="userSpaceOnUse" cx="0.0" cy="0.0" r=".5" gradientTransform="matrix(-1143.1 194.275 -170.8 -1005.5 1256.35 281.85)">
		<stop offset="0%" stop-color="#FFFFFF"/>
		<stop offset="41.9608%" stop-color="#FFE691"/>
		<stop offset="100%" stop-color="#9D846F"/>
		</radialGradient>
		<radialGradient id="grad1" gradientUnits="userSpaceOnUse" cx="0.0" cy="0.0" r=".5" gradientTransform="matrix(-230.175 90.125 -79.25 -202.475 1028.55 31.2)">
		<stop offset="0%" stop-color="#C4C4C4"/>
		<stop offset="100%" stop-color="#738495"/>
		</radialGradient>
		<radialGradient id="grad2" gradientUnits="userSpaceOnUse" cx="0.0" cy="0.0" r=".5" gradientTransform="matrix(-88.4 34.6 -30.425 -77.75 1013.95 18.4)">
		<stop offset="0%" stop-color="#C4C4C4"/>
		<stop offset="100%" stop-color="#738495"/>
		</radialGradient>
		<radialGradient id="grad3" gradientUnits="userSpaceOnUse" cx="0.0" cy="0.0" r=".5" gradientTransform="matrix(-107.1 41.925 -36.875 -94.225 1050.25 -3.7)">
		<stop offset="0%" stop-color="#C4C4C4"/>
		<stop offset="100%" stop-color="#738495"/>
		</radialGradient>
		<radialGradient id="grad4" gradientUnits="userSpaceOnUse" cx="0.0" cy="0.0" r=".5" gradientTransform="matrix(-251.6 98.525 -86.625 -221.3 1093.9 66.8)">
		<stop offset="0%" stop-color="#C4C4C4"/>
		<stop offset="100%" stop-color="#738495"/>
		</radialGradient>
		<radialGradient id="grad5" gradientUnits="userSpaceOnUse" cx="0.0" cy="0.0" r=".5" gradientTransform="matrix(-88.4 34.6 -30.425 -77.75 1013.95 18.4)">
		<stop offset="0%" stop-color="#C4C4C4"/>
		<stop offset="100%" stop-color="#738495"/>
		</radialGradient>
		<radialGradient id="grad6" gradientUnits="userSpaceOnUse" cx="0.0" cy="0.0" r=".5" gradientTransform="matrix(-107.1 41.925 -36.875 -94.225 1050.25 -3.7)">
		<stop offset="0%" stop-color="#C4C4C4"/>
		<stop offset="100%" stop-color="#738495"/>
		</radialGradient>
		<radialGradient id="grad7" gradientUnits="userSpaceOnUse" cx="0.0" cy="0.0" r=".5" gradientTransform="matrix(-197.25 77.225 -67.925 -173.5 1138.05 124.85)">
		<stop offset="0%" stop-color="#C4C4C4"/>
		<stop offset="100%" stop-color="#738495"/>
		</radialGradient>
		<radialGradient id="grad8" gradientUnits="userSpaceOnUse" cx="0.0" cy="0.0" r=".5" gradientTransform="matrix(-206.8 80.975 -71.2 -181.9 1138.85 110.45)">
		<stop offset="0%" stop-color="#C4C4C4"/>
		<stop offset="100%" stop-color="#738495"/>
		</radialGradient>
		<radialGradient id="grad9" gradientUnits="userSpaceOnUse" cx="0.0" cy="0.0" r=".5" gradientTransform="matrix(-131.125 51.35 -45.15 -115.35 1090.3 85.8)">
		<stop offset="0%" stop-color="#C4C4C4"/>
		<stop offset="100%" stop-color="#738495"/>
		</radialGradient>
		<radialGradient id="grad10" gradientUnits="userSpaceOnUse" cx="0.0" cy="0.0" r=".5" gradientTransform="matrix(-200 78.325 -68.875 -175.95 1089.2 101.3)">
		<stop offset="0%" stop-color="#FEECA0"/>
		<stop offset="100%" stop-color="#FFD147"/>
		</radialGradient>
		<radialGradient id="grad11" gradientUnits="userSpaceOnUse" cx="0.0" cy="0.0" r=".5" gradientTransform="matrix(-147.825 57.875 -50.9 -130.05 1143.75 202.4)">
		<stop offset="0.392157%" stop-color="#A0A0A0"/>
		<stop offset="100%" stop-color="#000000"/>
		</radialGradient>
		<radialGradient id="grad12" gradientUnits="userSpaceOnUse" cx="0.0" cy="0.0" r=".5" gradientTransform="matrix(-23.25 7.725 -7.8 -15.925 1112.95 207.65)">
		<stop offset="0%" stop-color="#FEECA0"/>
		<stop offset="100%" stop-color="#FFD147"/>
		</radialGradient>
		<radialGradient id="grad13" gradientUnits="userSpaceOnUse" cx="0.0" cy="0.0" r=".5" gradientTransform="matrix(-20.4 6.9 -6.95 -14.65 1171.25 183.85)">
		<stop offset="0%" stop-color="#FEECA0"/>
		<stop offset="100%" stop-color="#FFD147"/>
		</radialGradient>
	</defs>
	<g transform="translate(179.066,176.309)">
		<path d="M 1341.1 393.8 Q 1332.9 396.8 1324.4 400.1 Q 1306.4 402.95 1282.35 399.95 Q 1260.05 397.15 1236.45 389.9 Q 1195.95 377.5 1167.65 348.25 Q 1146.5 326.45 1124.7 285.7 Q 1100.9 238.25 1086.85 214.25 Q 1062.4 172.65 1033.3 145.9 Q 985.25 101.7 937.95 95.75 Q 908.2 92 884.25 103.2 L 882.5 100.2 L 890.45 96.4 Q 900.95 91.95 913.9 88.7 Q 955.25 78.3 1005.2 83.85 Q 1056.85 89.6 1167.7 167.95 Q 1207.25 195.9 1257.45 235.35 Q 1272.15 246.95 1332 295.05 Q 1340.05 301.45 1346.85 308.2 Q 1373.75 355.45 1360.35 379.55 Q 1354.95 385.5 1347.5 390.25 Z" transform="translate(-815.45,-214.95) scale(0.724976,0.724976)" fill="url(#grad0)"/>
		<path d="M 915.3 95.35 L 906.95 95.95 L 948.1 81.95 L 951.8 82.1 Z" transform="translate(-815.45,-214.95) scale(0.724976,0.724976)" fill="#5C3C20"/>
		<path d="M 967.2 81.9 L 970.7 82.1 L 935.95 94.65 L 928.05 95.25 Z" transform="translate(-815.45,-214.95) scale(0.724976,0.724976)" fill="#5C3C20"/>
		<path d="M 986.45 84.25 L 989.8 84.4 L 956.25 96.2 L 948.6 96.8 Z" transform="translate(-815.45,-214.95) scale(0.724976,0.724976)" fill="#5C3C20"/>
		<path d="M 1011.5 87.6 L 1015.25 87.9 L 975.2 104.4 L 970.05 102.75 Z" transform="translate(-815.45,-214.95) scale(0.724976,0.724976)" fill="#5C3C20"/>
		<path d="M 1035 94.05 L 1039.15 94.5 L 994.95 114.1 L 989.15 111.9 Z" transform="translate(-815.45,-214.95) scale(0.724976,0.724976)" fill="#5C3C20"/>
		<path d="M 1014.3 127.85 L 1008.9 124.8 L 1054.75 106.95 L 1058.9 107.4 Z" transform="translate(-815.45,-214.95) scale(0.724976,0.724976)" fill="#5C3C20"/>
		<path d="M 1033.3 145.9 L 1027.9 142.8 L 1073.75 124.95 L 1077.95 125.4 Z" transform="translate(-815.45,-214.95) scale(0.724976,0.724976)" fill="#5C3C20"/>
		<path d="M 1093.8 147.65 L 1098 148.05 L 1053.35 168.55 L 1047.95 165.45 Z" transform="translate(-815.45,-214.95) scale(0.724976,0.724976)" fill="#5C3C20"/>
		<path d="M 1091.65 230.4 L 1086.3 227.35 L 1132.15 209.5 L 1136.3 209.95 Z" transform="translate(-815.45,-214.95) scale(0.724976,0.724976)" fill="#5C3C20"/>
		<path d="M 1123.05 271.75 L 1109.2 272.05 L 1232.85 221.95 L 1243.8 219.65 Z" transform="translate(-815.45,-214.95) scale(0.724976,0.724976)" fill="#5C3C20"/>
		<path d="M 1270.25 243.55 L 1283.7 245.35 L 1140.85 315.5 L 1123.25 304.3 Z" transform="translate(-815.45,-214.95) scale(0.724976,0.724976)" fill="#5C3C20"/>
		<path d="M 1297.4 269 L 1310.35 271.3 L 1175.15 344.65 L 1158.05 332 Z" transform="translate(-815.45,-214.95) scale(0.724976,0.724976)" fill="#5C3C20"/>
		<path d="M 1316.5 295.25 L 1328.25 297.65 L 1206.9 367.7 L 1191.2 355.1 Z" transform="translate(-815.45,-214.95) scale(0.724976,0.724976)" fill="#5C3C20"/>
		<path d="M 1115.9 181 L 1120.05 181.4 L 1075.45 201.9 L 1070.05 198.8 Z" transform="translate(-815.45,-214.95) scale(0.724976,0.724976)" fill="#5C3C20"/>
		<path d="M 1182.7 188.05 L 1174.65 176.75 L 1285.7 250.75 L 1293.75 258.5 Z" transform="translate(-815.45,-214.95) scale(0.724976,0.724976)" fill="#5C3C20"/>
		<path d="M 1142.45 150.8 L 1134.75 149.7 Q 1086 99.35 1002.95 87.6 Q 977 83.9 950.75 84.55 L 929.65 85.9 L 932.75 84.15 L 937.55 83.35 Q 943.8 82.45 951.05 81.95 Q 974.3 80.45 999.05 83.85 Q 1078.2 94.75 1142.45 150.8 Z" transform="translate(-815.45,-214.95) scale(0.724976,0.724976)" fill="#5C3C20"/>
		<path d="M 1308 276.6 Q 1319.85 289.55 1328.9 302.55 Q 1357.35 343.3 1349.15 370.4 Q 1342.2 393.45 1309 404 L 1307.4 399.55 Q 1337.85 389.8 1344 369.4 Q 1351.65 343.95 1323.25 303.95 Q 1314.35 291.35 1302.85 278.85 Q 1293 268.7 1292.85 268.55 L 1296.85 265.2 Q 1301.8 269.85 1308 276.6 Z" transform="translate(-815.45,-214.95) scale(0.724976,0.724976)" fill="#5C3C20"/>
		<path d="M 1315.25 329.85 Q 1328 355 1320.1 372.4 Q 1310.75 392.9 1273.6 399.25 L 1272.8 394.55 Q 1306.9 388.75 1315.1 370.8 Q 1322.25 355.05 1309.8 331.1 Q 1305.9 323.55 1300.45 316.1 Q 1295.8 310.1 1295.7 310 L 1299.95 306.95 Q 1302.5 309.85 1305.45 313.95 Q 1311.2 321.85 1315.25 329.85 Z" transform="translate(-815.45,-214.95) scale(0.724976,0.724976)" fill="#5C3C20"/>
		<path d="M 1297.05 334.55 Q 1296.25 352.3 1284.9 364.3 Q 1264.6 385.8 1214.05 383.1 Q 1194.05 403.7 1173.6 430.15 Q 1136.1 478.5 1119.9 519.15 L 1114.85 517.75 Q 1132.2 474.3 1173.05 422.65 Q 1193.55 396.8 1211 379.15 L 1211.9 378.2 L 1213.25 378.3 Q 1262.05 381.15 1280.8 361.35 Q 1290.95 350.65 1291.6 334.2 Q 1291.8 329 1291 323.85 Q 1290.2 319.7 1290.15 319.65 L 1295.35 318.3 Q 1295.9 320.05 1296.4 323.25 Q 1297.3 328.9 1297.05 334.55 Z" transform="translate(-815.45,-214.95) scale(0.724976,0.724976)" fill="#5C3C20"/>
		<path d="M 1321.05 403.75 Q 1296.05 411.4 1271.95 424.1 Q 1195.25 464.55 1156.1 539.65 L 1151.2 537.85 Q 1191.15 461.2 1269.6 419.95 Q 1294.25 407 1319.85 399.15 Q 1332.75 395.2 1341.1 393.8 L 1341.8 398.5 Q 1333.65 399.9 1321.05 403.75 Z" transform="translate(-815.45,-214.95) scale(0.724976,0.724976)" fill="#5C3C20"/>
		<path d="M 1092.2 295.65 Q 1115.55 332.6 1127.35 349.4 Q 1146.95 377.45 1163.8 394.45 Q 1183.95 414.8 1203.95 423.6 Q 1226.25 433.45 1250.05 429.7 L 1250.8 434.4 Q 1225.7 438.35 1202.4 428.4 Q 1181.55 419.5 1160.75 398.8 Q 1143.35 381.45 1123.35 352.9 Q 1111.25 335.65 1087.5 298.1 Q 1071.15 272.3 1063.05 260.05 Q 1049.1 239 1037.45 223.8 Q 995.95 169.7 948.6 161.9 Q 933.75 159.45 920.05 162 Q 915.7 162.8 912 164 Q 909.15 165.05 909.05 165.1 L 906.65 160.9 Q 906.75 160.85 909.8 159.7 Q 913.75 158.4 918.35 157.5 Q 932.95 154.65 948.65 157.05 Q 998.75 164.65 1041.95 221 Q 1053.7 236.35 1067.7 257.45 Q 1076 270 1092.2 295.65 Z" transform="translate(-815.45,-214.95) scale(0.724976,0.724976)" fill="#5C3C20"/>
		<path d="M 996.5 283.25 Q 1027.35 299.7 1054.55 343 L 1055.9 345.15 Q 1077.35 379.2 1088.3 395.1 Q 1106.65 421.7 1122.1 438.25 Q 1160.9 479.75 1197.3 473.55 L 1198.1 478.25 Q 1159.2 484.85 1119.05 442.55 Q 1103.05 425.75 1084.3 398.55 Q 1073.1 382.35 1051.2 347.6 L 1049.85 345.45 Q 1023.8 304.1 994.35 287.95 Q 985.1 282.85 976.6 280.95 Q 969.85 280 969.75 280 L 969.7 275.25 Q 972.65 275.1 977.6 276.1 Q 986.7 278 996.5 283.25 Z" transform="translate(-815.45,-214.95) scale(0.724976,0.724976)" fill="#5C3C20"/>
		<path d="M 1001.7 357.4 Q 1008.8 363.5 1015.65 371.45 Q 1037.2 396.3 1048.95 429.85 Q 1055.8 449.5 1070.1 465.85 Q 1083.35 481 1101.35 491.45 Q 1118.5 501.5 1137 505.55 Q 1155.45 509.55 1171.5 506.85 L 1172.3 511.5 Q 1155.45 514.35 1136.05 510.2 Q 1116.65 506 1098.65 495.6 Q 1079.8 484.75 1065.9 468.95 Q 1050.95 451.95 1043.8 431.45 Q 1032.45 398.95 1011.2 374.45 Q 1004.55 366.75 997.65 360.8 Q 992.1 356.3 992 356.25 L 995.35 352.4 Q 997.95 354.15 1001.7 357.4 Z" transform="translate(-815.45,-214.95) scale(0.724976,0.724976)" fill="#5C3C20"/>
		<path d="M 1170.95 355.85 Q 1149.85 380.7 1128.9 413.65 Q 1087.1 479.45 1085.3 523.15 L 1079.9 523.15 Q 1081.7 478.35 1123.1 412.85 Q 1144.05 379.75 1166.75 353.1 Z" transform="translate(-815.45,-214.95) scale(0.724976,0.724976)" fill="#5C3C20"/>
		<path d="M 1130 305.95 Q 1129.85 306.25 1118.85 327.25 Q 1105.9 353.3 1095.5 379.6 Q 1062.4 463.4 1066.8 518.8 L 1061.45 519.35 Q 1057 463.1 1091.1 375.8 Q 1108.15 332 1126.55 298.7 Z" transform="translate(-815.45,-214.95) scale(0.724976,0.724976)" fill="#5C3C20"/>
		<path d="M 1058.15 179.35 Q 1044.35 224.95 1033.6 287.55 Q 1012.15 412.35 1025.8 502.75 L 1020.45 503.6 Q 1006.7 412.6 1028.25 287.05 Q 1039.05 224.15 1052.95 178.25 Z" transform="translate(-815.45,-214.95) scale(0.724976,0.724976)" fill="#5C3C20"/>
		<path d="M 1005.9 120.3 Q 1003.7 195.4 1004.5 278.95 Q 1006.1 445.7 1020.75 497.35 L 1015.55 498.7 Q 1000.75 446.7 999.15 279.45 Q 998.35 195.65 1000.5 120.35 Z" transform="translate(-815.45,-214.95) scale(0.724976,0.724976)" fill="#5C3C20"/>
		<path d="M 938.75 95.8 Q 938.85 96 944.9 110.35 Q 952.25 128.9 959.2 151 Q 981.3 221.15 991.2 299.3 Q 1007 423.95 1014.5 492.75 L 1009.15 493.4 Q 1001.65 424.6 985.85 300.05 Q 976.05 222.35 954.05 152.65 Q 947.2 130.75 939.85 112.25 Q 933.9 98 933.8 97.8 Z" transform="translate(-815.45,-214.95) scale(0.724976,0.724976)" fill="#5C3C20"/>
		<path d="M 883.75 102.5 Q 883.95 102.8 895.85 123 Q 910.2 147.85 922.85 172.1 Q 963.25 249.4 972.3 292.75 Q 981.3 335.8 996.65 417.8 Q 1004.3 458.85 1010.3 492.1 L 1005 493.05 Q 999 459.8 991.35 418.8 Q 976.05 336.8 967.05 293.8 Q 958.05 250.9 917.95 174.1 Q 905.3 149.95 891.05 125.3 Q 879.2 105.2 879 104.9 Z" transform="translate(-815.45,-214.95) scale(0.724976,0.724976)" fill="#5C3C20"/>
		<path d="M 1370.65 345.15 Q 1374.5 366.15 1365.45 381.7 Q 1355.15 399.4 1330.3 405 Q 1301.65 411.5 1257 400.85 Q 1212.25 390.2 1181.85 367.85 Q 1156.15 348.9 1134.45 316.25 Q 1125.8 303.3 1115.3 284.5 Q 1112.95 280.2 1096.2 249.35 Q 1070.2 201.35 1048.65 170.35 Q 1021.9 131.9 989.1 113.2 Q 962.9 98.25 934.05 96.6 Q 913.4 95.4 893.55 100.95 Q 887.35 102.7 881.95 104.9 L 877.8 106.75 L 882.5 100.2 Q 914.45 90.9 942.2 93.85 Q 958.4 95.55 972.3 101.55 Q 1016.55 120.5 1049.05 160.7 Q 1061.95 176.65 1075.4 198.8 Q 1083 211.3 1098.4 239.25 Q 1113.1 265.8 1121.55 279.5 Q 1135.05 301.25 1148.35 317.05 Q 1181.4 356.25 1226.85 373.9 Q 1276.1 393 1313.85 390.35 Q 1333.15 388.95 1344.7 381.35 Q 1357.1 373.2 1359.25 358.6 Q 1362.15 339 1330.65 302.65 Q 1320.8 291.3 1308.7 279.65 L 1270.55 244.55 Q 1287.6 250.35 1307.1 264.5 Q 1331.75 282.4 1354.1 309.75 Q 1367 325.55 1370.65 345.15 Z" transform="translate(-815.45,-214.95) scale(0.724976,0.724976)" fill="#5C3C20"/>
		<path d="M 976.3 53.3 L 990.15 56 L 990.45 57 Q 990.85 58.25 991.55 59.55 Q 992.25 60.9 994.3 61.45 Q 995.35 61.7 996.25 61.7 L 1001.2 59.85 L 1021.85 67.15 L 1022.1 80.3 L 969.1 108.4 Q 962.25 101.1 947.8 91.2 L 934.7 82.75 L 934.05 73.3 Z" transform="translate(-815.45,-214.95) scale(0.724976,0.724976)" fill="url(#grad1)"/>
		<path d="M 996.05 61.7 L 959.85 77.6 Q 960.95 79.75 959.1 81.9 Q 957.1 84.2 954.1 82.3 Q 951.2 80.4 951.15 76.55 Q 951.1 73.1 952.4 72.45 L 989.75 55.9 L 990.15 56 L 990.45 57 Q 990.85 58.25 991.55 59.55 Q 992.55 61.45 996.05 61.7 Z" transform="translate(-815.45,-214.95) scale(0.724976,0.724976)" fill="url(#grad2)"/>
		<path d="M 1021.85 67.15 L 1023.4 81.05 L 969.1 108.4 L 966.5 88.6 Z" transform="translate(-815.45,-214.95) scale(0.724976,0.724976)" fill="url(#grad3)"/>
		<path d="M 947 93.05 Q 945.8 90.75 946.1 88.55 Q 946.4 86.35 948 85.55 Q 949.6 84.75 951.6 85.85 Q 953.55 86.95 954.75 89.3 Q 955.95 91.65 955.65 93.8 Q 955.35 96 953.75 96.8 Q 952.2 97.6 950.2 96.5 Q 948.2 95.4 947 93.05 Z" transform="translate(-815.45,-214.95) scale(0.724976,0.724976)" fill="#000000"/>
		<path d="M 1055.35 89 Q 1056.7 89.55 1057.85 89.65 L 1064.6 87.7 L 1090.95 100.3 L 1089.75 118.35 L 1016.6 150.15 Q 1008.4 139.3 990.5 123.85 L 974.25 110.6 L 974.5 97.55 L 1032.55 75.55 L 1050.5 81 L 1050.8 82.4 Q 1051.2 84.15 1051.95 86.1 Q 1052.7 88 1055.35 89 Z" transform="translate(-815.45,-214.95) scale(0.724976,0.724976)" fill="url(#grad4)"/>
		<path d="M 1057.6 89.6 L 1008 106.75 Q 1009.25 109.8 1006.5 112.55 Q 1003.65 115.45 999.9 112.4 Q 996.25 109.5 996.65 104.15 Q 997 99.45 998.8 98.7 Q 999.9 98.3 1022 90.55 Q 1043.5 83.05 1049.95 80.85 L 1050.5 81 L 1050.8 82.4 Q 1051.2 84.15 1051.95 86.1 Q 1052.6 87.75 1054.8 88.75 Q 1056.1 89.4 1057.6 89.6 Z" transform="translate(-815.45,-214.95) scale(0.724976,0.724976)" fill="url(#grad5)"/>
		<path d="M 1016.6 150.15 L 1015.5 122.65 L 1090.95 100.3 L 1091.4 119.6 Z" transform="translate(-815.45,-214.95) scale(0.724976,0.724976)" fill="url(#grad6)"/>
		<path d="M 989.25 126.3 Q 987.95 122.95 988.55 119.95 Q 989.2 117 991.4 116.1 Q 993.6 115.25 996.1 117 Q 998.6 118.75 999.9 122.1 Q 1001.2 125.45 1000.6 128.4 Q 999.95 131.4 997.75 132.25 Q 995.55 133.1 993.05 131.4 Q 990.55 129.65 989.25 126.3 Z" transform="translate(-815.45,-214.95) scale(0.724976,0.724976)" fill="#000000"/>
		<path d="M 1151 142.4 L 1164.2 151.95 Q 1177.6 162.15 1178.9 165.4 Q 1180.5 169.5 1177.4 183.25 Q 1174.2 197.4 1170.2 201.45 Q 1165.45 206.2 1138.2 218.8 Q 1109.85 231.9 1102.15 231.85 Q 1095.05 231.8 1081.85 219.8 Q 1065.8 203.8 1057.7 195.9 Q 1048.65 187.05 1034.05 170.4 L 1021.2 155.55 Q 1021.05 150.6 1021.05 145.55 Q 1021 135.4 1021.7 134.95 Q 1022.6 134.35 1062.55 120.35 Q 1102.6 106.3 1105.2 105.7 Q 1107.45 105.25 1115.25 112.25 Q 1119.15 115.8 1123.3 120 Q 1123.8 120.4 1122.75 127.55 Q 1121.55 135.2 1122 136.8 Q 1122.6 138.85 1129.55 143.7 Q 1136.15 148.25 1137.15 148.15 Q 1137.8 148.1 1144.45 145.25 Q 1147.8 143.8 1151 142.4 Z" transform="translate(-815.45,-214.95) scale(0.724976,0.724976)" fill="url(#grad7)"/>
		<path d="M 1177.4 183.25 Q 1174.2 197.4 1170.2 201.45 Q 1165.8 205.85 1140.4 217.8 Q 1114.05 230.15 1104.1 231.7 Q 1102.5 225.8 1102.65 211.05 Q 1102.85 195.55 1105.1 192.1 Q 1107.15 188.95 1138.85 178.05 Q 1155.65 172.25 1178.7 165 L 1178.9 165.4 Q 1180.5 169.5 1177.4 183.25 Z" transform="translate(-815.45,-214.95) scale(0.724976,0.724976)" fill="url(#grad8)"/>
		<path d="M 1042.95 156 Q 1044.85 150.1 1047.15 147.75 Q 1049.5 145.4 1122.95 119.65 L 1123.3 120 Q 1123.8 120.4 1122.75 127.55 Q 1121.55 135.2 1122 136.8 Q 1122.55 138.65 1128.7 142.95 Q 1133.95 146.65 1137.15 148.15 Q 1112.6 155.3 1096.75 160 Q 1066.8 168.95 1065.8 170.1 Q 1064.1 173.7 1062.95 176.05 Q 1060.75 180.5 1058.1 181.15 Q 1055.1 181.85 1049.15 175.55 Q 1043.8 169.85 1042.15 165.7 Q 1040.85 162.45 1042.95 156 Z" transform="translate(-815.45,-214.95) scale(0.724976,0.724976)" fill="url(#grad9)"/>
		<path d="M 1141.4 136.6 Q 1140.8 136.2 1125.6 140.65 L 1125.55 140.7 Q 1111.2 144.95 1092.95 150.8 Q 1075.05 156.6 1074.2 157.25 Q 1072.9 158.25 1074.5 166.85 Q 1066.35 169.55 1065.8 170.1 L 1065.55 170.5 Q 1063.25 155.05 1066.35 150.45 Q 1067.9 148.15 1086.2 141.95 Q 1103.1 136.25 1122.2 131.15 Q 1134.4 127.9 1142 126.45 Q 1150.4 124.85 1151.25 125.85 Q 1153 127.75 1152.5 134.2 Q 1152.2 138.05 1151.2 142.55 L 1151 142.4 Q 1145.2 144.95 1141.1 146.65 Q 1142.55 137.4 1141.4 136.6 Z" transform="translate(-815.45,-214.95) scale(0.724976,0.724976)" fill="url(#grad10)"/>
		<path d="M 1168.65 179.75 L 1169.55 186.45 Q 1170.2 193.35 1168.75 194.35 Q 1166.7 195.75 1143.85 204.65 Q 1120.5 213.7 1118.9 213.35 Q 1117.2 213 1115.55 207.9 Q 1113.95 202.85 1114.55 200.25 Q 1115.1 198.15 1141.9 188.75 Q 1155.35 184.05 1168.65 179.75 Z" transform="translate(-815.45,-214.95) scale(0.724976,0.724976)" fill="url(#grad11)"/>
		<path d="M 1168.4 186.2 L 1117.85 204.1 L 1116.75 200.8 L 1167.25 182.9 Z" transform="translate(-815.45,-214.95) scale(0.724976,0.724976)" fill="#000000"/>
		<path d="M 1170.75 192.15 L 1120.2 210.05 L 1119.05 206.7 L 1169.6 188.8 Z" transform="translate(-815.45,-214.95) scale(0.724976,0.724976)" fill="#000000"/>
		<path d="M 1102.55 208.85 Q 1102.35 204.75 1105.3 201.5 Q 1108.2 198.3 1112.5 197.75 Q 1116.85 197.25 1120.05 199.8 Q 1123.2 202.35 1123.35 206.45 Q 1123.55 210.55 1120.65 213.8 Q 1117.7 217.05 1113.4 217.55 Q 1109.05 218.05 1105.9 215.5 Q 1102.7 212.95 1102.55 208.85 Z" transform="translate(-815.45,-214.95) scale(0.724976,0.724976)" fill="url(#grad12)"/>
		<path d="M 1162.1 184.7 Q 1162.05 180.95 1164.65 178.05 Q 1167.25 175.15 1171.05 174.8 Q 1174.85 174.45 1177.6 176.8 Q 1180.35 179.2 1180.4 183 Q 1180.5 186.75 1177.85 189.65 Q 1175.2 192.6 1171.4 192.95 Q 1167.6 193.3 1164.9 190.9 Q 1162.15 188.5 1162.1 184.7 Z" transform="translate(-815.45,-214.95) scale(0.724976,0.724976)" fill="url(#grad13)"/>
		<path d="M 1070 193.3 Q 1074.1 192.5 1077.6 196.1 Q 1081.1 199.75 1081.9 205.65 Q 1082.75 211.55 1080.5 216.3 Q 1078.2 221.05 1074.1 221.85 Q 1070 222.7 1066.55 219.05 Q 1063.05 215.45 1062.2 209.5 Q 1061.35 203.6 1063.65 198.85 Q 1065.9 194.1 1070 193.3 Z" transform="translate(-815.45,-214.95) scale(0.724976,0.724976)" fill="#000000"/>
	</g>
</svg>
