<?xml version="1.0"?>
<!DOCTYPE svg PUBLIC "-//W3C//DTD SVG 1.1//EN" "http://www.w3.org/Graphics/SVG/1.1/DTD/svg11.dtd">
<svg version='1.1' width='233px' height='206px' xmlns='http://www.w3.org/2000/svg' xmlns:xlink='http://www.w3.org/1999/xlink'>
	<defs>
		<radialGradient id="grad0" gradientUnits="userSpaceOnUse" cx="0.0" cy="0.0" r=".5" gradientTransform="matrix(384.15 0 0 -400.65 33.8 97.85)">
		<stop offset="0%" stop-color="#FFFFFF"/>
		<stop offset="41.9608%" stop-color="#FFE691"/>
		<stop offset="100%" stop-color="#9D846F"/>
		</radialGradient>
	</defs>
	<g transform="translate(0.000649351,-40.6607)">
		<path d="M 206.45 220.35 Q 207.15 219.3 207.85 218.95 Q 208.15 218.8 209.05 218.55 L 209.65 219.75 Q 209.3 220.85 208.05 221.35 Q 207.05 220.95 206.45 220.35 Z M 207.25 231.55 Q 206.9 232.65 205.65 233.15 Q 204.65 232.75 204.05 232.15 L 204.05 230.35 Q 204.35 230.35 205.2 230.25 Q 206.05 230.15 206.65 230.35 Z M 232.55 245.05 Q 232.2 246.05 230.95 246.55 Q 229.95 246.15 229.35 245.65 Q 230.05 244.6 230.75 244.25 Q 231.05 244.1 231.95 243.85 Z" fill="#000000"/>
		<path d="M 134.95 0.55 Q 142 1.2 145.85 2.95 L 145.4 4.2 Q 137 1.4 127.45 4.85 Q 112.35 10.25 99.1 30.55 Q 91.1 42.85 85.4 60.55 Q 82.15 70.75 77 90.7 Q 72.15 107.9 66.45 117.75 Q 58.85 130.95 46.3 138.4 Q 38.95 142.8 31.85 145.3 Q 24.15 148.1 18.15 148.15 L 12.35 146.8 Q 11.4 146.5 10.05 145.85 Q 7.35 144.5 5.25 142.55 Q -0.45 134.05 5.7 114.05 Q 7.4 111.2 9.8 107.95 Q 41.9 65.1 56.45 47.9 Q 88.3 10.25 104.85 4.65 Q 120.85 -0.75 134.95 0.55 Z" transform="translate(0.05,40.7)" fill="url(#grad0)"/>
		<path d="M 123.4 0.15 L 137.6 2.9 L 134.85 3.2 L 122.2 0.5 Z" transform="translate(0.05,40.7)" fill="#5C3C20"/>
		<path d="M 128.05 4.3 L 116 1.7 L 117.15 1.4 L 130.7 4 Z" transform="translate(0.05,40.7)" fill="#5C3C20"/>
		<path d="M 121.5 6.25 L 109.9 3.85 L 111 3.6 L 124.05 5.95 Z" transform="translate(0.05,40.7)" fill="#5C3C20"/>
		<path d="M 103 6.55 L 117.4 9.65 L 115.8 10.65 L 101.8 6.9 Z" transform="translate(0.05,40.7)" fill="#5C3C20"/>
		<path d="M 95.65 10.6 L 111.65 14.45 L 109.85 15.7 L 94.35 11 Z" transform="translate(0.05,40.7)" fill="#5C3C20"/>
		<path d="M 87.05 16.05 L 105.9 20.75 L 104.3 22.3 L 85.7 16.5 Z" transform="translate(0.05,40.7)" fill="#5C3C20"/>
		<path d="M 99.1 30.55 L 77.05 23.8 L 78.4 23.35 L 100.7 29 Z" transform="translate(0.05,40.7)" fill="#5C3C20"/>
		<path d="M 93.8 40.65 L 68.95 33 L 70.25 32.55 L 95.4 39.1 Z" transform="translate(0.05,40.7)" fill="#5C3C20"/>
		<path d="M 84.75 67.1 L 48.95 56.25 L 50.3 55.8 L 86.3 65.55 Z" transform="translate(0.05,40.7)" fill="#5C3C20"/>
		<path d="M 36.15 73.15 L 80.35 84.85 L 78.75 86.35 L 34.8 73.6 Z" transform="translate(0.05,40.7)" fill="#5C3C20"/>
		<path d="M 25.35 87 L 74.7 100.35 L 73.1 101.9 L 24 87.45 Z" transform="translate(0.05,40.7)" fill="#5C3C20"/>
		<path d="M 65.05 116.35 L 15.25 101.9 L 16.6 101.45 L 66.65 114.8 Z" transform="translate(0.05,40.7)" fill="#5C3C20"/>
		<path d="M 56.3 127.05 L 7.45 112.95 L 8.8 112.5 L 57.85 125.55 Z" transform="translate(0.05,40.7)" fill="#5C3C20"/>
		<path d="M 88.45 55 L 58.15 45.85 L 59.5 45.4 L 90.05 53.45 Z" transform="translate(0.05,40.7)" fill="#5C3C20"/>
		<path d="M 129.65 0.5 Q 119.05 0.95 105.8 5.95 Q 79.35 16 66.2 38.7 L 63.75 39.6 Q 81.6 13.7 106.85 4.25 Q 119.45 -0.45 128.5 0 Z" transform="translate(0.05,40.7)" fill="#5C3C20"/>
		<path d="M 19.65 94.1 L 24.65 88.85 Q 24.6 88.95 21.3 94.6 Q 17.45 101.5 14.6 107.95 Q 5.6 128.65 10.05 137.55 Q 13.8 145.15 23.65 146.8 L 23.35 148.65 Q 11.95 146.75 8.4 138.3 Q 4.25 128.3 11.25 110.65 Q 13.5 105.05 16.65 99.25 Q 18.45 96 19.65 94.1 Z" transform="translate(0.05,40.7)" fill="#5C3C20"/>
		<path d="M 25.25 104.35 Q 25.25 104.4 23.45 108.2 Q 21.4 112.75 20 117.05 Q 15.65 130.75 19.55 136.2 Q 24.15 142.6 34.7 142.6 L 34.7 144.45 Q 23.6 144.45 18 137.15 Q 13.55 131.2 18 117.2 Q 19.45 112.7 21.6 107.95 Q 23.05 104.75 23.65 103.8 Z" transform="translate(0.05,40.7)" fill="#5C3C20"/>
		<path d="M 53.2 132.4 L 53.65 132.25 L 54 132.55 Q 54.05 132.6 58.4 136.55 Q 63.75 141.55 68.8 146.95 Q 85.05 164.25 93.1 179.9 L 91.55 180.8 Q 84 166.1 69.05 149.85 Q 60.5 140.55 53.2 134.3 Q 38.05 138.35 29.05 131.7 Q 21.95 126.4 23.15 115.15 Q 23.5 111.6 24.7 107.8 Q 25.8 104.65 25.8 104.55 L 27.2 104.95 Q 27.2 105 26.2 107.95 Q 25.1 111.65 24.75 115 Q 23.65 125.9 30.2 130.25 Q 39.15 136.25 53.2 132.4 Z" transform="translate(0.05,40.7)" fill="#5C3C20"/>
		<path d="M 12.35 146.8 Q 12.45 146.8 19.55 147.5 Q 28.35 148.85 37.15 152.25 Q 65.05 163.05 82.35 190.1 L 80.85 191.1 Q 63.9 164.6 36.6 154 Q 28 150.65 19.4 149.35 Q 12.45 148.65 12.35 148.65 Z" transform="translate(0.05,40.7)" fill="#5C3C20"/>
		<path d="M 139.45 28.6 L 139.3 29.2 Q 139.2 29.5 138.8 29.45 Q 131.25 28.6 123.5 33.3 Q 111.05 40.8 102.05 61 Q 97.45 71.3 89.85 93.05 Q 78.55 125.1 71.5 136.9 Q 59.8 156.35 44.1 156.6 L 44.05 154.7 Q 58.95 154.5 70.25 135.4 Q 77.1 123.85 88.2 92.4 Q 95.9 70.4 100.45 60.2 Q 109.75 39.25 122.85 31.5 Q 131.05 26.65 139.1 27.6 Q 139.55 27.65 139.6 27.95 Q 139.6 28 139.45 28.6 Z" transform="translate(0.05,40.7)" fill="#5C3C20"/>
		<path d="M 127.05 76.45 L 127.3 78.3 Q 124.1 78.85 119.75 82.95 Q 111 91.15 104.8 108.9 L 104.45 109.85 Q 94 139.65 87.55 151.1 Q 76.8 170.1 63.75 170.1 L 63.75 168.25 Q 75.95 168.25 86.35 149.6 Q 92.5 138.55 102.8 109.2 L 103.1 108.25 Q 109.6 89.7 118.75 81.3 Q 123.4 77.05 127.05 76.45 Z" transform="translate(0.05,40.7)" fill="#5C3C20"/>
		<path d="M 74 181.3 L 74 179.4 Q 85.4 179.4 96.05 168.85 Q 107.45 157.55 109.75 141.55 Q 111.75 127.8 117.4 116.75 Q 120.25 111.15 122.95 108 L 124.3 109.3 Q 123.65 110.05 122.7 111.45 Q 120.75 114.2 119 117.6 Q 113.45 128.45 111.55 141.8 Q 109.15 158.5 97.2 170.25 Q 85.95 181.3 74 181.3 Z" transform="translate(0.05,40.7)" fill="#5C3C20"/>
		<path d="M 65.8 120.9 L 67 119.55 Q 69.7 122.25 72.8 125.65 Q 79.1 132.65 84.55 139.85 Q 101.75 162.45 104.8 179.7 L 103.05 180.05 Q 100.05 163.25 82.75 140.55 Q 77.35 133.45 71.05 126.5 Q 65.9 121 65.8 120.9 Z" transform="translate(0.05,40.7)" fill="#5C3C20"/>
		<path d="M 76.4 98.9 L 77.15 95.85 Q 77.25 95.95 82.15 103.75 Q 88 113.45 93 123.4 Q 108.95 154.95 110.65 177 L 108.85 177.15 Q 107.2 155.4 91.75 125.15 Q 86.9 115.65 81.25 106.4 Q 76.5 99 76.4 98.9 Z" transform="translate(0.05,40.7)" fill="#5C3C20"/>
		<path d="M 92.85 45.15 L 94.5 44.35 Q 101.55 61.25 108.6 84.9 Q 122.6 132.1 123.15 168.2 L 121.35 168.25 Q 120.8 132.35 106.9 85.4 Q 99.9 61.9 92.85 45.15 Z" transform="translate(0.05,40.7)" fill="#5C3C20"/>
		<path d="M 106.65 18.8 L 108.4 18.5 Q 113.3 47.5 117.7 80 Q 126.45 144.9 124.5 166 L 122.7 165.8 Q 124.65 144.85 115.9 80.15 Q 111.55 47.75 106.65 18.8 Z" transform="translate(0.05,40.7)" fill="#5C3C20"/>
		<path d="M 123.6 27.65 Q 125.3 13.3 127.2 4.9 L 128.95 5.35 Q 127 13.7 125.35 27.95 Q 122.05 56.35 123.15 87.1 Q 124.9 136.4 126.3 163.55 L 124.5 163.6 Q 123.15 136.5 121.35 87.2 Q 120.25 56.3 123.6 27.65 Z" transform="translate(0.05,40.7)" fill="#5C3C20"/>
		<path d="M 136.6 33.4 Q 141.1 17.1 145.55 3.9 L 147.25 4.5 Q 142.8 17.65 138.35 33.85 Q 129.5 66.25 128.95 83.45 Q 128.1 111.1 127.6 163.1 L 125.85 163.1 Q 126.3 111.05 127.2 83.4 Q 127.75 66 136.6 33.4 Z" transform="translate(0.05,40.7)" fill="#5C3C20"/>
		<path d="M 145.85 2.95 L 147.75 5.15 Q 139.5 2 128.8 4.9 Q 107.45 10.7 95.45 41 Q 90.15 54.4 84.3 74.75 Q 78.15 96.2 75.55 103.15 Q 70.25 117.25 62.9 126.25 Q 54.25 136.95 40.2 144 Q 26.2 151.05 16.5 150.45 Q 8.05 149.9 3.7 143.7 Q -0.1 138.3 -0.05 129.9 Q 0.05 122.05 3.4 115.1 Q 9.2 103.05 35.6 71.2 Q 60.45 41.2 65.75 37.8 L 19.35 96.15 L 16.55 100.45 Q 13.25 105.75 10.7 110.85 Q 2.4 127 4.45 134.35 Q 7.4 145.25 21.05 143.65 Q 33.5 142.25 48.55 131.6 Q 62.4 121.75 71 104.4 Q 76.35 93.7 83 71 Q 89.9 47.6 94.8 37.3 Q 103.15 19.6 116.55 9.35 Q 128.2 0.5 145.85 2.95 Z" transform="translate(0.05,40.7)" fill="#5C3C20"/>
	</g>
</svg>
