<?xml version="1.0"?>
<!DOCTYPE svg PUBLIC "-//W3C//DTD SVG 1.1//EN" "http://www.w3.org/Graphics/SVG/1.1/DTD/svg11.dtd">
<svg version='1.1' width='89px' height='114px' xmlns='http://www.w3.org/2000/svg' xmlns:xlink='http://www.w3.org/1999/xlink'>
	<defs>
		<radialGradient id="grad0" gradientUnits="userSpaceOnUse" cx="0.0" cy="0.0" r=".5" gradientTransform="matrix(110.775 0 0 -115.525 40.8 -0.85)">
		<stop offset="0%" stop-color="#C4C4C4"/>
		<stop offset="100%" stop-color="#738495"/>
		</radialGradient>
		<radialGradient id="grad1" gradientUnits="userSpaceOnUse" cx="0.0" cy="0.0" r=".5" gradientTransform="matrix(42.525 0 0 -44.35 44.8 -10)">
		<stop offset="0%" stop-color="#C4C4C4"/>
		<stop offset="100%" stop-color="#738495"/>
		</radialGradient>
		<radialGradient id="grad2" gradientUnits="userSpaceOnUse" cx="0.0" cy="0.0" r=".5" gradientTransform="matrix(51.525 0 0 -53.75 26.05 -13.9)">
		<stop offset="0%" stop-color="#C4C4C4"/>
		<stop offset="100%" stop-color="#738495"/>
		</radialGradient>
		<radialGradient id="grad3" gradientUnits="userSpaceOnUse" cx="0.0" cy="0.0" r=".5" gradientTransform="matrix(121.075 0 0 -126.275 19.35 29.45)">
		<stop offset="0%" stop-color="#C4C4C4"/>
		<stop offset="100%" stop-color="#738495"/>
		</radialGradient>
		<radialGradient id="grad4" gradientUnits="userSpaceOnUse" cx="0.0" cy="0.0" r=".5" gradientTransform="matrix(42.525 0 0 -44.35 44.8 -10)">
		<stop offset="0%" stop-color="#C4C4C4"/>
		<stop offset="100%" stop-color="#738495"/>
		</radialGradient>
		<radialGradient id="grad5" gradientUnits="userSpaceOnUse" cx="0.0" cy="0.0" r=".5" gradientTransform="matrix(51.525 0 0 -53.75 26.05 -13.85)">
		<stop offset="0%" stop-color="#C4C4C4"/>
		<stop offset="100%" stop-color="#738495"/>
		</radialGradient>
		<radialGradient id="grad6" gradientUnits="userSpaceOnUse" cx="0.0" cy="0.0" r=".5" gradientTransform="matrix(94.9 0 0 -98.975 10.4 66.75)">
		<stop offset="0%" stop-color="#C4C4C4"/>
		<stop offset="100%" stop-color="#738495"/>
		</radialGradient>
		<radialGradient id="grad7" gradientUnits="userSpaceOnUse" cx="0.0" cy="0.0" r=".5" gradientTransform="matrix(99.55 0 0 -103.825 7.75 59.75)">
		<stop offset="0%" stop-color="#C4C4C4"/>
		<stop offset="100%" stop-color="#738495"/>
		</radialGradient>
		<radialGradient id="grad8" gradientUnits="userSpaceOnUse" cx="0.0" cy="0.0" r=".5" gradientTransform="matrix(63.125 0 0 -65.825 23.95 38.15)">
		<stop offset="0%" stop-color="#C4C4C4"/>
		<stop offset="100%" stop-color="#738495"/>
		</radialGradient>
		<radialGradient id="grad9" gradientUnits="userSpaceOnUse" cx="0.0" cy="0.0" r=".5" gradientTransform="matrix(96.25 0 0 -100.375 26.95 45.6)">
		<stop offset="0%" stop-color="#FEECA0"/>
		<stop offset="100%" stop-color="#FFD147"/>
		</radialGradient>
		<radialGradient id="grad10" gradientUnits="userSpaceOnUse" cx="0.0" cy="0.0" r=".5" gradientTransform="matrix(71.15 0 0 -74.2 20.7 106.2)">
		<stop offset="0.392157%" stop-color="#A0A0A0"/>
		<stop offset="100%" stop-color="#000000"/>
		</radialGradient>
		<radialGradient id="grad11" gradientUnits="userSpaceOnUse" cx="0.0" cy="0.0" r=".5" gradientTransform="matrix(10.95 -0.675 0.65 -9.4 34.4 102.85)">
		<stop offset="0%" stop-color="#FEECA0"/>
		<stop offset="100%" stop-color="#FFD147"/>
		</radialGradient>
		<radialGradient id="grad12" gradientUnits="userSpaceOnUse" cx="0.0" cy="0.0" r=".5" gradientTransform="matrix(9.625 -0.525 0.5 -8.575 6.2 102.35)">
		<stop offset="0%" stop-color="#FEECA0"/>
		<stop offset="100%" stop-color="#FFD147"/>
		</radialGradient>
	</defs>
	<g transform="translate(44.2,56.85)">
		<path d="M 88.4 6.5 Q 86.55 9.35 84.3 13.2 Q 79.9 20.9 78.2 25.85 L 51.55 22.2 L 49.5 15.65 L 56.9 8.05 L 59.25 8 Q 60.75 7.3 60.85 6.05 Q 61 4.75 60.9 4 L 66.2 0 L 87.1 1.7 Z" transform="translate(-44.2,-56.85)" fill="url(#grad0)"/>
		<path d="M 80.2 10.05 Q 79.25 11.6 78.1 10.85 Q 76.95 10.1 77.05 8.8 L 59.35 8 Q 60.8 7.05 60.85 6.05 Q 61 4.75 60.9 4 L 61.05 3.9 Q 62.95 3.95 71 4.4 Q 78.8 4.8 79.3 4.85 Q 80 4.9 80.5 6.6 Q 81.15 8.55 80.2 10.05 Z" transform="translate(-44.2,-56.85)" fill="url(#grad1)"/>
		<path d="M 51.1 22.85 L 49.5 15.65 L 76.1 15.55 L 78.2 25.85 Z" transform="translate(-44.2,-56.85)" fill="url(#grad2)"/>
		<path d="M 84.95 14 Q 84.85 15.4 84.2 16.3 Q 83.55 17.25 82.75 17.15 Q 81.95 17.1 81.45 16.05 Q 81 15 81.1 13.6 Q 81.2 12.25 81.85 11.3 Q 82.5 10.4 83.3 10.45 Q 84.1 10.55 84.6 11.55 Q 85.05 12.6 84.95 14 Z" transform="translate(-44.2,-56.85)" fill="#000000"/>
		<path d="M 76.45 27.95 Q 74.3 32.1 71.8 37.65 Q 66.85 48.75 65.2 55.7 L 29.5 54.15 L 26.05 45.45 L 35 34.1 L 38.1 33.75 Q 40 32.6 40 30.85 L 39.8 28.05 L 46.4 21.9 L 74.2 21.55 Z" transform="translate(-44.2,-56.85)" fill="url(#grad3)"/>
		<path d="M 66.05 33.8 Q 65 36.05 63.3 35.15 Q 61.7 34.35 61.7 32.55 L 38.2 33.7 Q 38.75 33.35 39.25 32.75 Q 40 31.8 40 30.85 L 39.8 28.05 L 40 27.9 Q 42.8 27.75 53.25 27.3 Q 63.7 26.8 64.25 26.8 Q 65.1 26.8 66.05 29.1 Q 67.05 31.65 66.05 33.8 Z" transform="translate(-44.2,-56.85)" fill="url(#grad4)"/>
		<path d="M 29.05 55.1 L 26.05 45.45 L 61.2 41.9 L 65.2 55.7 Z" transform="translate(-44.2,-56.85)" fill="url(#grad5)"/>
		<path d="M 72.75 38.6 Q 72.75 40.5 72 41.85 Q 71.25 43.2 70.15 43.2 Q 69.1 43.2 68.35 41.85 Q 67.6 40.5 67.6 38.6 Q 67.6 36.7 68.35 35.35 Q 69.1 34 70.15 34 Q 71.25 34 72 35.35 Q 72.75 36.7 72.75 38.6 Z" transform="translate(-44.2,-56.85)" fill="#000000"/>
		<path d="M 15.75 61.45 Q 16.8 58.6 17.85 56.05 Q 20 51.1 21 50.9 Q 22.2 50.7 41.2 49.9 Q 60.15 49.1 60.6 49.2 Q 61 49.3 62.65 54.3 Q 63.45 56.8 64.2 59.3 Q 59.25 76.5 55.55 86.3 Q 53.45 91.8 49.4 102.8 Q 45.85 111.35 42.9 112.7 Q 39.65 114.25 25.7 113.25 Q 12.3 112.3 9.5 110.85 Q 7.15 109.65 3.55 103.25 Q 0 97.05 0 94.7 Q 0 92.85 3.95 85.2 L 7.9 77.9 Q 14.15 78.25 14.6 78.1 Q 15.05 77.9 17.05 74.4 Q 19.15 70.7 19.05 69.55 Q 18.95 68.65 17.25 65.1 Q 15.65 61.75 15.75 61.45 Z" transform="translate(-44.2,-56.85)" fill="url(#grad6)"/>
		<path d="M 0 94.7 L 0 94.45 Q 10.25 93.6 18.8 93.2 Q 33.8 92.45 35.15 93.6 Q 36.65 94.85 39.25 102.5 Q 41.7 109.75 42.05 113 Q 37.65 114.15 24.6 113.15 Q 12.1 112.15 9.5 110.85 Q 7.15 109.65 3.55 103.25 Q 0 97.05 0 94.7 Z" transform="translate(-44.2,-56.85)" fill="url(#grad7)"/>
		<path d="M 33.4 76.1 Q 32.75 76.15 14.6 78.1 Q 15.75 76.55 17.3 73.85 Q 19.15 70.55 19.05 69.55 Q 18.95 68.65 17.25 65.1 Q 15.65 61.75 15.75 61.45 Q 15.85 61.35 15.85 61.2 Q 27.3 60.75 35.5 60.45 Q 51.2 60 52.1 60.45 Q 53.4 61.15 55.2 63.7 Q 57.1 66.5 57.1 68.35 Q 57.1 70.75 55.8 74.6 Q 54.35 78.85 52.95 79.1 Q 51.75 79.3 50.1 77.5 L 47.95 75.1 Q 47.3 74.7 33.4 76.1 Z" transform="translate(-44.2,-56.85)" fill="url(#grad8)"/>
		<path d="M 33.45 70.85 Q 25.05 71.45 18.2 72.15 Q 11.1 72.85 10.95 73.2 Q 10.55 73.8 12.7 78.1 L 7.9 77.9 L 7.8 78 Q 4.35 71.85 5.05 69.75 Q 5.5 68.45 18.05 66.75 Q 27 65.55 34.85 65.15 Q 43.5 64.65 44.5 65.5 Q 46.6 67.15 48.1 75.25 L 47.95 75.1 Q 47.6 74.95 43.8 75.2 Q 43.1 70.65 42.35 70.4 Q 41.9 70.2 33.45 70.85 Z" transform="translate(-44.2,-56.85)" fill="url(#grad9)"/>
		<path d="M 6.6 99.8 Q 12.85 99.35 19.25 99.05 Q 32 98.5 32.55 99.45 Q 33.2 100.65 33.35 103.45 Q 33.5 106.3 32.85 106.8 Q 32.25 107.3 21.05 107.3 Q 10.05 107.35 8.95 107.05 Q 7.75 106.7 6.6 99.8 Z" transform="translate(-44.2,-56.85)" fill="url(#grad10)"/>
		<path d="M 7.7 101.1 L 31.7 100.15 L 31.8 102.05 L 7.75 102.95 Z" transform="translate(-44.2,-56.85)" fill="#000000"/>
		<path d="M 7.7 104.5 L 31.7 103.55 L 31.8 105.4 L 7.75 106.35 Z" transform="translate(-44.2,-56.85)" fill="#000000"/>
		<path d="M 36.6 98.3 Q 38.35 99.35 38.95 101.4 Q 39.55 103.45 38.65 105.35 Q 37.75 107.2 35.85 107.8 Q 34 108.4 32.2 107.35 Q 30.45 106.3 29.85 104.25 Q 29.25 102.2 30.15 100.3 Q 31.1 98.45 33 97.85 Q 34.85 97.25 36.6 98.3 Z" transform="translate(-44.2,-56.85)" fill="url(#grad11)"/>
		<path d="M 8 98.2 Q 9.6 99.15 10.15 101 Q 10.75 102.85 10 104.6 Q 9.25 106.3 7.6 106.85 Q 5.95 107.4 4.4 106.5 Q 2.8 105.55 2.25 103.7 Q 1.65 101.85 2.4 100.1 Q 3.15 98.35 4.8 97.8 Q 6.45 97.25 8 98.2 Z" transform="translate(-44.2,-56.85)" fill="url(#grad12)"/>
		<path d="M 55.9 93.9 Q 56.5 97 55.65 99.5 Q 54.8 101.95 52.95 102.35 Q 51.1 102.75 49.4 100.8 Q 47.65 98.9 47.05 95.8 Q 46.4 92.75 47.3 90.25 Q 48.15 87.8 50 87.4 Q 51.85 87 53.55 88.9 Q 55.3 90.8 55.9 93.9 Z" transform="translate(-44.2,-56.85)" fill="#000000"/>
	</g>
</svg>
