<?xml version="1.0"?>
<!DOCTYPE svg PUBLIC "-//W3C//DTD SVG 1.1//EN" "http://www.w3.org/Graphics/SVG/1.1/DTD/svg11.dtd">
<svg version='1.1' width='10px' height='10px' xmlns='http://www.w3.org/2000/svg' xmlns:xlink='http://www.w3.org/1999/xlink'>
	<g transform="translate(0.5,0.5)">
		<path d="M 7.65 7.65 Q 6.35 9 4.5 9 Q 2.65 9 1.3 7.65 Q 0 6.35 0 4.5 Q 0 2.65 1.3 1.3 Q 2.65 0 4.5 0 Q 6.35 0 7.65 1.3 Q 9 2.65 9 4.5 Q 9 6.35 7.65 7.65 Z" fill="#FFFFFF"/>
		<path d="M 7.65 7.65 Q 6.35 9 4.5 9 Q 2.65 9 1.3 7.65 Q 0 6.35 0 4.5 Q 0 2.65 1.3 1.3 Q 2.65 0 4.5 0 Q 6.35 0 7.65 1.3 Q 9 2.65 9 4.5 Q 9 6.35 7.65 7.65 Z" fill="none" stroke-width="1" stroke-linejoin="round" stroke-linecap="round" stroke="#9AD2F6"/>
	</g>
</svg>
